<?xml version="1.0" encoding="utf-8"?>
<!-- Generator: Adobe Illustrator 25.1.0, SVG Export Plug-In . SVG Version: 6.00 Build 0)  -->
<svg version="1.1" id="Capa_1" xmlns="http://www.w3.org/2000/svg" xmlns:xlink="http://www.w3.org/1999/xlink" x="0px" y="0px"
	 viewBox="0 0 17.558 19.842" enable-background="new 0 0 17.558 19.842" xml:space="preserve">
<g id="Group_986" transform="translate(-16.254)">
	<g id="Group_985" transform="translate(16.253)">
		<path id="Path_735" d="M4.3103,9.324h5.363c0.2546-0.0076,0.4552-0.2194,0.449-0.474V5.658
			c-0.0137-0.3015-0.1114-0.5931-0.282-0.842l-3.4-4.442L6.1553,0c0,0-0.2,0-0.451,0h-1.394
			c-0.2546,0.0076-0.4552,0.2194-0.449,0.474V8.85C3.8551,9.1046,4.0557,9.3164,4.3103,9.324z"/>
		<path id="Path_736" d="M13.2453,9.805h-8.935c-0.2546,0.0076-0.4552,0.2194-0.449,0.474v1.068
			c-0.0062,0.2546,0.1944,0.4664,0.449,0.474h8.935c0.2546-0.0076,0.4552-0.2194,0.449-0.474v-1.068
			C13.7005,10.0244,13.4999,9.8126,13.2453,9.805z"/>
		<path id="Path_737" d="M9.6733,12.261h-5.363c-0.2546,0.0076-0.4552,0.2194-0.449,0.474v6.633
			c-0.0062,0.2546,0.1944,0.4664,0.449,0.474h5.363c0.2546-0.0076,0.4552-0.2194,0.449-0.474v-6.633
			C10.1285,12.4804,9.9279,12.2686,9.6733,12.261z"/>
		<path id="Path_738" d="M8.6303,1.59c0.1029,0.1557,0.3126,0.1986,0.4683,0.0957C9.1367,1.6605,9.1692,1.628,9.1943,1.59
			l0.937-1.222c0.155-0.2,0.08-0.368-0.167-0.368h-2.1c-0.247,0-0.322,0.166-0.167,0.368L8.6303,1.59z"/>
		<path id="Path_739" d="M3.1173,0.504l-3.09,9.4c-0.0824,0.2274,0.0352,0.4786,0.2627,0.561
			c0.008,0.0029,0.0162,0.0056,0.0243,0.008l2.517,0.7c0.1749,0.0568,0.3628-0.0389,0.4196-0.2138
			c0.0145-0.0445,0.0194-0.0916,0.0144-0.1382V0.53C3.2643,0.27,3.1983,0.257,3.1173,0.504z"/>
		<path id="Path_740" d="M17.5313,9.903l-3.09-9.4c-0.081-0.246-0.147-0.234-0.147,0.026v10.295
			c-0.0195,0.1829,0.113,0.3469,0.2958,0.3664c0.0465,0.005,0.0936,0,0.1382-0.0144l2.517-0.7
			c0.2319-0.0687,0.3643-0.3124,0.2956-0.5444C17.538,9.922,17.5348,9.9124,17.5313,9.903z"/>
		<path id="Path_741" d="M13.2453,12.261h-1.694c-0.2545,0.0076-0.4552,0.2194-0.449,0.474v6.633
			c-0.0062,0.2546,0.1945,0.4664,0.449,0.474h1.694c0.2545-0.0076,0.4552-0.2194,0.449-0.474v-6.633
			C13.7005,12.4804,13.4999,12.2686,13.2453,12.261z"/>
		<path id="Path_742" d="M13.2453,0h-1.124h-0.446l-0.285,0.372l-1.563,2.039c-0.1553,0.2211-0.1553,0.5159,0,0.737l0.888,1.159
			c0.155,0.2,0.307,0.415,0.336,0.472c0.0422,0.2308,0.0603,0.4654,0.054,0.7V8.85c-0.0062,0.2546,0.1945,0.4664,0.449,0.474h1.694
			c0.2545-0.0076,0.4552-0.2194,0.449-0.474V0.474C13.7034,0.2184,13.5012,0.0062,13.2456,0C13.2455,0,13.2454,0,13.2453,0z"/>
	</g>
</g>
</svg>
