<?xml version="1.0" encoding="utf-8"?>
<!-- Generator: Adobe Illustrator 25.1.0, SVG Export Plug-In . SVG Version: 6.00 Build 0)  -->
<svg version="1.1" id="Capa_1" xmlns="http://www.w3.org/2000/svg" xmlns:xlink="http://www.w3.org/1999/xlink" x="0px" y="0px"
	 viewBox="0 0 11.842 11.842" enable-background="new 0 0 11.842 11.842" xml:space="preserve">
<path id="Path_747" d="M5.921,0C2.6509,0,0,2.6509,0,5.921s2.6509,5.921,5.921,5.921s5.921-2.6509,5.921-5.921
	C11.8381,2.6525,9.1895,0.0039,5.921,0z M3.047,6.818c-0.4971,0-0.9-0.4029-0.9-0.9c0-0.4971,0.4029-0.9,0.9-0.9
	c0.4971,0,0.9,0.4029,0.9,0.9S3.5441,6.818,3.047,6.818C3.047,6.818,3.047,6.818,3.047,6.818z M5.917,6.818
	c-0.4971,0-0.9-0.4029-0.9-0.9c0-0.4971,0.4029-0.9,0.9-0.9c0.4971,0,0.9,0.4029,0.9,0.9c0,0.4955-0.4005,0.8978-0.896,0.9H5.917z
	 M8.788,6.818c-0.4971,0-0.9-0.4029-0.9-0.9s0.4029-0.9,0.9-0.9c0.4971,0,0.9,0.4029,0.9,0.9l0,0
	C9.688,6.4151,9.2851,6.818,8.788,6.818z"/>
</svg>
