<?xml version="1.0" encoding="utf-8"?>
<!-- Generator: Adobe Illustrator 25.1.0, SVG Export Plug-In . SVG Version: 6.00 Build 0)  -->
<svg version="1.1" id="Capa_1" xmlns="http://www.w3.org/2000/svg" xmlns:xlink="http://www.w3.org/1999/xlink" x="0px" y="0px"
	 viewBox="0 0 16.945 9.356" enable-background="new 0 0 16.945 9.356" xml:space="preserve">
<path id="Path_775" d="M14.108,5.428c-0.279-0.056-0.574,0.079-0.883-0.035c0.034-0.1564,0.0511-0.316,0.051-0.476V2.269
	C13.2754,1.0165,12.2605,0.0011,11.008,0l0,0c-0.7797,0.4714-1.6632,0.7441-2.573,0.794C7.5445,0.7719,6.6787,0.4964,5.939,0
	c-1.2529,0-2.2689,1.0151-2.27,2.268l0,0v2.649c0.0001,0.1528,0.0155,0.3053,0.046,0.455c-0.35,0.134-0.683,0.015-0.993,0.08
	C1.049,5.8,0,4.378,0,5.422s3.793,3.934,8.472,3.934s8.473-2.615,8.473-3.934S15.849,5.774,14.108,5.428z M8.283,7.116
	c-2.415,0-4.373-0.618-4.373-1.38c0.0162-0.1967,0.1197-0.3758,0.282-0.488c1.2482,0.6876,2.6684,1.0001,4.09,0.9
	c1.4398,0.1009,2.8785-0.2113,4.147-0.9c0.1498,0.1166,0.234,0.2984,0.226,0.488c0,0.762-1.957,1.379-4.373,1.379L8.283,7.116z"/>
</svg>
