<svg xmlns="http://www.w3.org/2000/svg" width="10.78" height="14.303" viewBox="0 0 10.78 14.303">
  <g id="Group_934" data-name="Group 934" transform="translate(-34.878)">
    <path id="Path_664" data-name="Path 664" d="M150.492,5.406a.292.292,0,0,0-.214-.281c-1-.276-1.472-2.319-1.511-4.85A.279.279,0,0,0,148.487,0h-1.4a.28.28,0,0,0-.279.271c-.054,1.819-.329,4.212-1.449,4.212V14.3h5.162Zm-1.4,1.562h-1.763a.381.381,0,0,1,0-.763h1.763a.381.381,0,1,1,0,.763Z" transform="translate(-104.859)"/>
    <path id="Path_665" data-name="Path 665" d="M38.563.271A.279.279,0,0,0,38.284,0H36.908a.279.279,0,0,0-.279.275c-.039,2.531-.511,4.573-1.511,4.85a.292.292,0,0,0-.214.281l-.025,8.9,5.618,0V4.459C38.589,4.4,38.632,2.595,38.563.271Zm.977,5.9a.413.413,0,1,1-.413.413A.413.413,0,0,1,39.54,6.173Zm0,1.982a.413.413,0,1,1-.413.413A.413.413,0,0,1,39.54,8.156Zm0,1.982a.413.413,0,1,1-.413.413A.413.413,0,0,1,39.54,10.138Z"/>
  </g>
</svg>
