<?xml version="1.0" encoding="utf-8"?>
<!-- Generator: Adobe Illustrator 25.1.0, SVG Export Plug-In . SVG Version: 6.00 Build 0)  -->
<svg version="1.1" id="Layer_1" xmlns="http://www.w3.org/2000/svg" xmlns:xlink="http://www.w3.org/1999/xlink" x="0px" y="0px"
	 viewBox="0 0 16.577 15.1851" enable-background="new 0 0 16.577 15.1851" xml:space="preserve">
<g id="Group_977" transform="translate(-8.837 -13.421)">
	<path id="Path_747" d="M13.9326,16.458c0.21,0,0.3804-0.17,0.381-0.38v-2.657h-4.1v3.037H13.9326z"/>
	<g id="Group_976" transform="translate(8.837 13.421)">
		<path id="Path_748" d="M12.139,13.946c-0.7626,0.0003-1.5244-0.0511-2.28-0.154l-1.657-0.227
			c-1.3803-0.1883-2.7719-0.2828-4.165-0.283H0v1.9h5.363v-0.558l4.374,0.42c2.1771,0.2943,4.3918,0.127,6.5-0.491l0.34-0.1v-1.1
			C15.1303,13.7455,13.638,13.9449,12.139,13.946z"/>
		<path id="Path_749" d="M4.11,12.371c1.3928,0.0002,2.784,0.0947,4.164,0.283l1.727,0.237c2.2018,0.2982,4.4416,0.1334,6.576-0.484
			v-1c-0.0445-1.3135-1.1445-2.3427-2.458-2.3h-0.756c-0.7778-0.0092-1.548-0.154-2.276-0.428l-0.745,1.213L9.497,9.438l0.759-1.235
			l-0.185-0.115C9.8976,7.9804,9.7363,7.8543,9.59,7.712L8.239,8.579L7.688,7.827l1.348-0.862c-0.0899-0.1859-0.157-0.382-0.2-0.584
			H7.314V5.47h1.463V4.559H7.314V3.647h1.463V2.736H7.314V1.825h1.463V0.912C8.7585,0.3932,8.3238-0.0129,7.805,0.004H6.339V2.66
			C6.3129,3.3981,5.6942,3.9757,4.956,3.951H1.463v1.625C1.4615,6.2066,1.2785,6.8235,0.936,7.353L0.385,8.211
			C0.1341,8.5982,0.0004,9.0496,0,9.511v2.866L4.11,12.371z"/>
	</g>
</g>
</svg>
