<?xml version="1.0" encoding="utf-8"?>
<!-- Generator: Adobe Illustrator 25.1.0, SVG Export Plug-In . SVG Version: 6.00 Build 0)  -->
<svg version="1.1" id="Capa_1" xmlns="http://www.w3.org/2000/svg" xmlns:xlink="http://www.w3.org/1999/xlink" x="0px" y="0px"
	 viewBox="0 0 11.3362 14.429" enable-background="new 0 0 11.3362 14.429" xml:space="preserve">
<g id="Group_988" transform="translate(0)">
	<g id="Group_985" transform="translate(0)">
		<g id="Group_984">
			<path id="Path_776" d="M10.2832,6.7L10.2832,6.7c-0.1572-1.5657-1.0218-2.9736-2.347-3.822L7.2142,0h-4.122l-0.72,2.881
				c-2.3933,1.5317-3.0918,4.7136-1.5601,7.1069c0.4011,0.6267,0.9334,1.159,1.5601,1.5601l0.72,2.881h4.122l0.72-2.878
				c1.3246-0.8484,2.1887-2.2558,2.346-3.821h1.056V6.7H10.2832z M5.1562,11.337c-2.2765,0-4.122-1.8455-4.122-4.122
				s1.8455-4.122,4.122-4.122c2.2761,0,4.1214,1.8449,4.122,4.121l0,0C9.276,9.4898,7.432,11.3342,5.1562,11.337z"/>
		</g>
	</g>
	<g id="Group_987" transform="translate(4.641 4.638)">
		<g id="Group_986">
			<path id="Path_777" d="M1.0302,2.616V0h-1.031v2.934l1.3,1.877l0.842-0.583L1.0302,2.616z"/>
		</g>
	</g>
</g>
</svg>
