<?xml version="1.0" standalone="no"?>
<!DOCTYPE svg PUBLIC "-//W3C//DTD SVG 20010904//EN"
 "http://www.w3.org/TR/2001/REC-SVG-20010904/DTD/svg10.dtd">
<svg version="1.0" xmlns="http://www.w3.org/2000/svg"
 width="512.000000pt" height="512.000000pt" viewBox="0 0 512.000000 512.000000"
 preserveAspectRatio="xMidYMid meet">

<g transform="translate(0.000000,512.000000) scale(0.100000,-0.100000)"
fill="#000000" stroke="none">
<path d="M1940 5106 c0 -35 45 -157 80 -216 39 -68 127 -161 193 -206 134 -91
318 -124 480 -88 170 39 299 129 399 281 35 52 88 191 88 229 0 12 -85 14
-620 14 -524 0 -620 -2 -620 -14z"/>
<path d="M1383 4937 l-352 -142 -6 -61 c-9 -79 11 -325 35 -439 39 -187 97
-312 208 -447 154 -189 285 -475 326 -713 23 -130 21 -333 -4 -456 -30 -145
-122 -416 -253 -745 -108 -270 -175 -469 -192 -571 -6 -35 -4 -43 9 -43 31 0
233 -73 331 -119 431 -204 695 -518 775 -923 11 -57 23 -113 25 -125 3 -12 15
-32 27 -43 21 -19 35 -20 244 -20 275 0 265 -5 289 139 46 269 151 471 349
666 178 177 387 301 655 388 69 23 127 42 128 42 6 3 -48 208 -77 295 -18 52
-81 217 -140 365 -121 301 -210 568 -236 701 -25 130 -23 339 5 474 54 258
181 521 340 705 101 116 181 319 212 536 13 92 18 373 7 384 -12 12 -712 295
-722 292 -4 -1 -19 -41 -33 -87 -77 -268 -303 -486 -573 -555 -206 -52 -437
-17 -627 97 -86 50 -212 180 -267 273 -39 67 -57 113 -102 263 -2 6 -9 12 -16
11 -7 0 -171 -65 -365 -142z"/>
<path d="M751 4649 c-150 -105 -277 -257 -374 -446 -55 -108 -121 -287 -133
-362 -6 -38 -5 -40 42 -75 76 -56 202 -114 310 -142 90 -23 112 -25 244 -21
117 4 161 9 228 29 46 14 88 30 94 36 7 7 -11 35 -55 87 -156 187 -234 419
-259 773 -7 94 -15 172 -19 172 -3 0 -38 -23 -78 -51z"/>
<path d="M4276 4573 c-20 -375 -107 -638 -279 -836 -36 -41 -47 -61 -39 -69
28 -28 178 -60 308 -65 208 -9 370 34 529 139 79 52 80 54 78 93 -2 54 -54
209 -109 324 -92 195 -246 385 -399 490 -40 28 -75 51 -78 51 -2 0 -8 -57 -11
-127z"/>
</g>
</svg>
