<?xml version="1.0" encoding="utf-8"?>
<!-- Generator: Adobe Illustrator 25.1.0, SVG Export Plug-In . SVG Version: 6.00 Build 0)  -->
<svg version="1.1" id="Capa_1" xmlns="http://www.w3.org/2000/svg" xmlns:xlink="http://www.w3.org/1999/xlink" x="0px" y="0px"
	 viewBox="0 0 17.442 13.081" enable-background="new 0 0 17.442 13.081" xml:space="preserve">
<g id="Group_955" transform="translate(2.907 9.448)">
	<g id="Group_954">
		<rect id="Rectangle_2034" x="0" y="0" width="8.721" height="0.727"/>
	</g>
</g>
<g id="Group_957" transform="translate(2.907 10.902)">
	<g id="Group_956">
		<path id="Path_735" d="M0,0v1.816c0.0005,0.2003,0.1627,0.3625,0.363,0.363h8c0.2005,0,0.363-0.1625,0.363-0.363V0H0z"/>
	</g>
</g>
<g id="Group_959" transform="translate(2.907)">
	<g id="Group_958">
		<path id="Path_736" d="M9.811,0H2.544C1.1397,0.0017,0.0017,1.1397,0,2.544v6.177h8.722v-6.9
			C8.7203,1.2185,9.2075,0.7287,9.81,0.727c0.0003,0,0.0007,0,0.001,0c0.2008,0,0.3635-0.1627,0.3635-0.3635S10.0118,0,9.811,0z"/>
	</g>
</g>
<g id="Group_961" transform="translate(1.454 1.454)">
	<g id="Group_960">
		<path id="Path_737" d="M1.816,0H0.363C0.1625-0.0001-0.0001,0.1624-0.0001,0.3629S0.1622,0.7259,0.3627,0.726
			c0.0001,0,0.0002,0,0.0003,0h1.453c0.2005,0,0.363-0.1625,0.363-0.363S2.0165,0,1.816,0z"/>
	</g>
</g>
<g id="Group_963" transform="translate(12.355)">
	<g id="Group_962">
		<path id="Path_738" d="M0.367,0C0.1667,0.0005,0.0045,0.1627,0.004,0.363c0.0017,0.1691,0.1213,0.3141,0.287,0.348L0.286,0.735
			c0.0268-0.004,0.0539-0.0067,0.081-0.008c0.2008,0,0.3635,0.1627,0.3635,0.3635S0.5678,1.454,0.367,1.454
			C0.263,1.4548,0.1644,1.5008,0.097,1.58L0,2v0.182h2.181V1.817C2.1799,0.8151,1.3689,0.0028,0.367,0z"/>
	</g>
</g>
<g id="Group_965" transform="translate(0 0.727)">
	<g id="Group_964">
		<circle id="Ellipse_425" cx="1.09" cy="1.09" r="1.09"/>
	</g>
</g>
<g id="Group_967" transform="translate(15.262 0.727)">
	<g id="Group_966">
		<circle id="Ellipse_426" cx="1.09" cy="1.09" r="1.09"/>
	</g>
</g>
<g id="Group_969" transform="translate(12.355 2.907)">
	<g id="Group_968">
		<rect id="Rectangle_2035" x="0" y="0" width="2.18" height="1.454"/>
	</g>
</g>
<g id="Group_971" transform="translate(12.355 5.087)">
	<g id="Group_970">
		<path id="Path_739" d="M0,0v2.18h1.817C2.0173,2.1795,2.1795,2.0173,2.18,1.817V0H0z"/>
	</g>
</g>
<g id="Group_973" transform="translate(12.355 1.454)">
	<g id="Group_972">
		<path id="Path_740" d="M3.267,0h-2.9C0.1667,0.0005,0.0045,0.1627,0.004,0.363v0.363h3.263c0.2005,0,0.363-0.1625,0.363-0.363
			S3.4675,0,3.267,0z"/>
	</g>
</g>
</svg>
