<?xml version="1.0" encoding="utf-8"?>
<!-- Generator: Adobe Illustrator 25.1.0, SVG Export Plug-In . SVG Version: 6.00 Build 0)  -->
<svg version="1.1" id="Layer_1" xmlns="http://www.w3.org/2000/svg" xmlns:xlink="http://www.w3.org/1999/xlink" x="0px" y="0px"
	 viewBox="0 0 18.4745 9.4012" enable-background="new 0 0 18.4745 9.4012" xml:space="preserve">
<g>
	<path d="M10.0177,0.4737c1.2916,0.4187,2.4434,1.1761,3.3394,2.2l1.2577,1.4373h0.5186c0.3256,0,0.5896,0.264,0.5896,0.5896
		s-0.264,0.5896-0.5896,0.5896h-0.5186l-1.2576,1.4373c-0.8959,1.0239-2.0477,1.7813-3.3394,2.2l3.1139,0.4295
		c1.3463,0.1857,2.7061-0.2199,3.7306-1.1129c1.0246-0.8928,1.6122-2.1844,1.6122-3.5435s-0.5876-2.6507-1.6122-3.5436
		s-2.3843-1.2986-3.7306-1.1129L10.0177,0.4737z"/>
	<path d="M9.5096,7.8518c1.1478-0.3421,2.1713-0.9994,2.9601-1.9008l1.0941-1.2504l-1.0942-1.2504
		c-0.7887-0.9014-1.8122-1.5587-2.96-1.9008L7.0771,0.8243C5.9643,0.9187,4.846,0.9665,3.7342,0.9665
		C1.6752,0.9665,0,2.6417,0,4.7007s1.6752,3.7342,3.7342,3.7342c1.1119,0,2.2302,0.0478,3.343,0.1421L9.5096,7.8518z"/>
</g>
</svg>
