<svg xmlns="http://www.w3.org/2000/svg" width="14.194" height="21.317" viewBox="0 0 14.194 21.317">
  <path id="Path_682" data-name="Path 682" d="M63.886,3.627l-.369-.513a3.09,3.09,0,0,0-.593-1.745A3.482,3.482,0,0,0,60.6,0c-.021,0-.357,0-.876,0a.369.369,0,0,0-.363.3,2.554,2.554,0,0,1-2.5,2.061A2.554,2.554,0,0,1,54.356.3a.37.37,0,0,0-.363-.3c-.515,0-.85,0-.876,0a3.483,3.483,0,0,0-2.324,1.365A3.1,3.1,0,0,0,50.2,3.114l-.368.513a.364.364,0,0,0-.065.275.371.371,0,0,0,.149.241l2.22,1.6a.369.369,0,0,0,.516-.083l.337-.469a7.4,7.4,0,0,1,.52,3.169,17.026,17.026,0,0,0-1.455,7.121A29.27,29.27,0,0,0,53.2,20.9a.578.578,0,0,0,.555.42h6.2a.577.577,0,0,0,.555-.42,29.266,29.266,0,0,0,1.151-5.419,17.032,17.032,0,0,0-1.453-7.118,7.4,7.4,0,0,1,.519-3.17l.336.467a.368.368,0,0,0,.515.083l2.221-1.6a.372.372,0,0,0,.149-.241A.368.368,0,0,0,63.886,3.627Z" transform="translate(-49.762)"/>
</svg>
