<svg xmlns="http://www.w3.org/2000/svg" width="7.959" height="17.379" viewBox="0 0 7.959 17.379">
  <g id="Group_933" data-name="Group 933" transform="translate(-81.563)">
    <path id="Path_662" data-name="Path 662" d="M89.018,38.667h-6.95a.447.447,0,0,0-.445.4,9.114,9.114,0,0,0-.056,1.295l.372,13.223a.238.238,0,0,0,.238.232h2.166a.238.238,0,0,0,.238-.221L85.4,42.577a.145.145,0,0,1,.29,0L86.5,53.592a.238.238,0,0,0,.238.221h2.166a.238.238,0,0,0,.238-.232l.373-13.223a9.114,9.114,0,0,0-.056-1.3A.447.447,0,0,0,89.018,38.667Z" transform="translate(0 -36.434)"/>
    <path id="Path_663" data-name="Path 663" d="M89.076,0H82.012a.448.448,0,0,0-.448.448v.645a.448.448,0,0,0,.448.448h7.064a.448.448,0,0,0,.448-.448V.448A.448.448,0,0,0,89.076,0ZM84.851,1.039A.269.269,0,1,1,85.12.77.269.269,0,0,1,84.851,1.039Zm1.386,0A.269.269,0,1,1,86.506.77.269.269,0,0,1,86.237,1.039Z" transform="translate(-0.001)"/>
  </g>
</svg>
