<?xml version="1.0" encoding="utf-8"?>
<!-- Generator: Adobe Illustrator 25.1.0, SVG Export Plug-In . SVG Version: 6.00 Build 0)  -->
<svg version="1.1" id="Capa_1" xmlns="http://www.w3.org/2000/svg" xmlns:xlink="http://www.w3.org/1999/xlink" x="0px" y="0px"
	 viewBox="0 0 11.913 10.143" enable-background="new 0 0 11.913 10.143" xml:space="preserve">
<g id="Group_990">
	<path id="Path_781" d="M11.093,4.311H11.03V3.677c-0.002-0.7311-0.5434-1.3486-1.268-1.446V1.458
		C9.7571,0.6533,9.1047,0.0027,8.3,0H1.546C0.7017,0.0004,0.0136,0.6778,0,1.522v7.163c0.0049,0.8032,0.6548,1.4531,1.458,1.458
		h8.11c0.8032-0.0049,1.4531-0.6548,1.458-1.458v-0.7h0.063c0.454,0.0011,0.8229-0.366,0.824-0.82c0,0,0,0,0,0V5.136
		c0.0011-0.454-0.366-0.8229-0.82-0.824c0,0,0,0,0,0V4.311z M0.887,1.547c0.0038-0.3623,0.2977-0.6544,0.66-0.656h6.744
		c0.3137-0.0017,0.5693,0.2513,0.571,0.565c0,0,0,0,0,0v0.761H1.546C1.1812,2.2089,0.8891,1.9119,0.887,1.547z M11.03,7.1H8.937
		C8.4123,7.0759,8.0065,6.6311,8.0306,6.1064C8.0531,5.6154,8.446,5.2225,8.937,5.2h2.093V7.1z"/>
</g>
</svg>
