<svg xmlns="http://www.w3.org/2000/svg" width="14.322" height="14.3" viewBox="0 0 14.322 14.3">
  <g id="Group_935" data-name="Group 935" transform="translate(0 -0.22)">
    <path id="Path_666" data-name="Path 666" d="M5.327,44.187a.984.984,0,0,1-.973-.834l-.387-2.512a1.766,1.766,0,0,0-.683.1h0A1.689,1.689,0,0,0,2.2,42.182L.006,52.533a.306.306,0,0,0,.238.363l1.371.282a.306.306,0,0,0,.359-.227L3.7,45.976l-.026,6.437a.306.306,0,0,0,.306.308H6.8v-9.31l-.932.614A.982.982,0,0,1,5.327,44.187Z" transform="translate(0 -38.664)"/>
    <path id="Path_667" data-name="Path 667" d="M163.148,52.532l-2.194-10.351a1.691,1.691,0,0,0-1.083-1.241h0a1.765,1.765,0,0,0-.683-.1l-.387,2.512a.984.984,0,0,1-1.514.672l-.932-.614v9.31h2.828a.306.306,0,0,0,.306-.308l-.029-6.431,1.719,6.97a.306.306,0,0,0,.359.227l1.371-.282a.306.306,0,0,0,.238-.363Z" transform="translate(-148.834 -38.664)"/>
    <path id="Path_668" data-name="Path 668" d="M100.673,4.8a.263.263,0,0,0,.259-.223l.418-2.715a1.338,1.338,0,0,0-.99-1.5l-.083-.018a8.421,8.421,0,0,0-2.878,0q-.054.01-.109.026a1.338,1.338,0,0,0-.963,1.5l.418,2.713a.263.263,0,0,0,.4.179l1.689-1.113,1.69,1.113A.262.262,0,0,0,100.673,4.8Zm-.625-2.718-1.21,1.409-1.21-1.409a.153.153,0,0,1,.1-.252c.269-.03.574-.049.9-.055l.21,0,.209,0c.327.006.632.025.9.055a.153.153,0,0,1,.1.252Z" transform="translate(-91.678 0)"/>
  </g>
</svg>
