<svg xmlns="http://www.w3.org/2000/svg" width="13.477" height="13.409" viewBox="0 0 13.477 13.409">
  <g id="Group_938" data-name="Group 938" transform="translate(-8.245 -10.187)">
    <path id="Path_679" data-name="Path 679" d="M100.569,12.951a.14.14,0,0,0,.211.045l1.146-.909,1.146.909a.14.14,0,0,0,.087.03.141.141,0,0,0,.029,0,.14.14,0,0,0,.1-.072l.978-1.877a.14.14,0,0,0-.033-.171l-.8-.682a.14.14,0,0,0-.091-.033h-.011a.14.14,0,0,0-.1.049l-1.3,1.532-1.3-1.532a.14.14,0,0,0-.1-.049h-.011a.14.14,0,0,0-.091.033l-.8.682a.14.14,0,0,0-.033.171Z" transform="translate(-86.883)"/>
    <path id="Path_680" data-name="Path 680" d="M21.365,32.444s-2.854-1.414-3.26-1.51a.879.879,0,0,1-.078.214l-.978,1.877a.871.871,0,0,1-1.313.28l-.327-.259V42.5a.365.365,0,1,1-.73,0V33.046l-.327.259a.871.871,0,0,1-1.313-.28l-.978-1.877a.88.88,0,0,1-.078-.214l-.1.045v0c-.405.1-3.277,1.5-3.277,1.5s-.394,10.1-.354,10.184l1.366.3,1.044-7.81.12,7.855a.326.326,0,0,0,.326.325h7.881a.326.326,0,0,0,.325-.325V35.114l1.044,7.81,1.366-.3C21.76,42.548,21.365,32.444,21.365,32.444Zm-7.529,7.548a.517.517,0,1,1,.517-.517A.517.517,0,0,1,13.836,39.992Zm0-1.884a.517.517,0,1,1,.517-.517A.517.517,0,0,1,13.836,38.108Zm0-2.07a.517.517,0,1,1,.517-.517A.517.517,0,0,1,13.836,36.038Z" transform="translate(0 -19.737)"/>
  </g>
</svg>
