<?xml version="1.0" encoding="utf-8"?>
<!-- Generator: Adobe Illustrator 25.1.0, SVG Export Plug-In . SVG Version: 6.00 Build 0)  -->
<svg version="1.1" id="Capa_1" xmlns="http://www.w3.org/2000/svg" xmlns:xlink="http://www.w3.org/1999/xlink" x="0px" y="0px"
	 viewBox="0 0 16.0407 12.8184" enable-background="new 0 0 16.0407 12.8184" xml:space="preserve">
<g id="Group_981" transform="translate(0 -51.409)">
	<g id="Group_980" transform="translate(0 51.409)">
		<path id="Path_732" d="M15.671,6.275l0.322-6.206L14.68,0.001l-0.316,6.1c-1.4191-0.1245-2.8392,0.2273-4.036,1
			c-1.1313,0.9696-1.8217,2.3559-1.914,3.843h-0.68C7.6419,9.4566,6.9514,8.0699,5.82,7.1c-1.1971-0.7729-2.6176-1.1248-4.037-1
			L1.31,0L0,0.1l0.478,6.167c-0.06,0.218-1.1,4.054,0.588,5.442c2.395,1.97,6.055,0.76,6.645,0.546h0.725
			c0.59,0.214,4.25,1.424,6.645-0.546C16.756,10.333,15.745,6.542,15.671,6.275z"/>
	</g>
</g>
</svg>
