<?xml version="1.0" encoding="utf-8"?>
<!-- Generator: Adobe Illustrator 25.1.0, SVG Export Plug-In . SVG Version: 6.00 Build 0)  -->
<svg version="1.1" id="Capa_1" xmlns="http://www.w3.org/2000/svg" xmlns:xlink="http://www.w3.org/1999/xlink" x="0px" y="0px"
	 viewBox="0 0 17.8596 17.854" enable-background="new 0 0 17.8596 17.854" xml:space="preserve">
<g id="Group_975" transform="translate(0)">
	<path id="Path_741" d="M9.3237,8.623L6.5047,0.17l-1.621,0.406c-0.1143,0.0288-0.2156,0.095-0.288,0.188
		c-0.039,0.048,0.186-0.351-3.554,6.443l3.554,2.23l0.451-0.814H9.3237z"/>
	<path id="Path_742" d="M7.8117,12.196c-0.2911,0.0004-0.5273-0.2353-0.5277-0.5263c-0.0002-0.1306,0.0482-0.2567,0.1357-0.3537
		l1.467-1.641h-3.84v7.653c0.0005,0.2893,0.2347,0.5239,0.524,0.525h3.956v-7.321l-1.322,1.484
		c-0.0993,0.1124-0.242,0.1768-0.392,0.177L7.8117,12.196z"/>
	<path id="Path_743" d="M10.3087,0h-2.752l1.372,4.129L10.3087,0z"/>
	<path id="Path_744" d="M10.5777,17.854h1.715c0.2899,0,0.525-0.2351,0.525-0.525V9.675h-2.24V17.854z"/>
	<path id="Path_745" d="M13.3147,0.836c-0.0571-0.1059-0.1489-0.1889-0.26-0.235c0,0,0.149,0.031-1.7-0.431l-1.869,5.619
		l0.946,2.834h2.387l0.454,0.816l3.555-2.226L13.3147,0.836z"/>
	<path id="Path_746" d="M17.7947,8.968l-0.46-0.833l-3.551,2.227l0.434,0.781c0.1417,0.2536,0.4622,0.3443,0.7158,0.2025
		c0.0072-0.004,0.0142-0.0082,0.0212-0.0125l2.659-1.666C17.8493,9.5184,17.9286,9.2122,17.7947,8.968z"/>
	<path id="Path_747" d="M0.0657,8.968c-0.1354,0.2446-0.0554,0.5523,0.182,0.7l2.653,1.664c0.247,0.1539,0.5721,0.0784,0.726-0.1687
		c0.0042-0.0067,0.0082-0.0135,0.012-0.0203l0.434-0.782l-3.548-2.226L0.0657,8.968z"/>
</g>
</svg>
