<?xml version="1.0" encoding="utf-8"?>
<!-- Generator: Adobe Illustrator 25.1.0, SVG Export Plug-In . SVG Version: 6.00 Build 0)  -->
<svg version="1.1" id="Layer_1" xmlns="http://www.w3.org/2000/svg" xmlns:xlink="http://www.w3.org/1999/xlink" x="0px" y="0px"
	 viewBox="0 0 14.5657 11.9219" enable-background="new 0 0 14.5657 11.9219" xml:space="preserve">
<g id="Group_1016" transform="translate(0)">
	<path id="Path_814" d="M14.5648,0.9898C14.5658,0.4441,14.1242,0.001,13.5786,0c-0.2628-0.0005-0.515,0.1038-0.7008,0.2898
		l-0.243,0.248c-2.7912-0.4991-5.6488-0.4991-8.44,0l-0.239-0.24C3.5435-0.0613,2.9181-0.0182,2.5591,0.3941
		C2.2357,0.7654,2.2343,1.3179,2.5558,1.6908l0.139,0.139c-0.035,0.2-0.066,0.4-0.093,0.591
		c2.4856-0.3593,5.0113-0.3398,7.491,0.058c0.7387-0.6768,1.8862-0.6265,2.5629,0.1122c0.5969,0.6516,0.6375,1.6384,0.0961,2.3368
		c0.1977,1.2769,0.238,2.5733,0.12,3.86l0.011,0.011c0.3905,0.3827,1.0173,0.3764,1.4-0.0142c0.3772-0.3849,0.3772-1.0009,0-1.3858
		l-0.149-0.151c0.3253-1.7888,0.3274-3.6215,0.006-5.411l0.144-0.144C14.4676,1.5053,14.5688,1.2522,14.5648,0.9898z"/>
	<path id="Path_815" d="M11.8678,10.0688c0.3246-1.7889,0.3266-3.6214,0.006-5.411l0.144-0.144
		c0.3827-0.3905,0.3764-1.0173-0.0142-1.4c-0.3849-0.3772-1.0009-0.3772-1.3858,0l-0.243,0.249
		c-2.7895-0.4991-5.6455-0.4991-8.435,0l-0.239-0.252C1.3126,2.7217,0.6824,2.721,0.2933,3.1093s-0.3898,1.0184-0.0015,1.4075
		c0,0,0,0,0,0l0,0l0.139,0.139c-0.323,1.7931-0.3209,3.6296,0.006,5.422l-0.144,0.144c-0.3883,0.3852-0.3907,1.0122-0.0055,1.4005
		s1.0122,0.3907,1.4005,0.0055l0,0l0.283-0.286c2.7674,0.491,5.5996,0.491,8.367,0l0.282,0.283
		c0.3827,0.3905,1.0095,0.3969,1.4,0.0142s0.3969-1.0095,0.0142-1.4c-0.0047-0.0048-0.0094-0.0095-0.0142-0.0142L11.8678,10.0688z"
		/>
</g>
</svg>
