<?xml version="1.0" encoding="utf-8"?>
<!-- Generator: Adobe Illustrator 25.2.1, SVG Export Plug-In . SVG Version: 6.00 Build 0)  -->
<svg version="1.1" id="Layer_1" xmlns="http://www.w3.org/2000/svg" xmlns:xlink="http://www.w3.org/1999/xlink" x="0px" y="0px"
	 viewBox="0 0 8.3 15.8" style="enable-background:new 0 0 8.3 15.8;" xml:space="preserve">
<path d="M6.9,9.5C6.4,7.9,7.4,6.6,7.8,5.3c0.2-0.7,0.1-1.4-0.4-2c0,0,0,0,0,0L7.4,0H6.3L6.2,4.1c0,0.3-0.1,0.5-0.2,0.7
	C5.7,5.1,5.3,5.5,4.5,5.6l0,0c-0.1,0-0.2,0-0.3,0c-0.1,0-0.2,0-0.3,0l0,0C2.9,5.5,2.5,5.1,2.3,4.8C2.2,4.6,2.1,4.3,2.1,4.1L2,0H0.9
	L0.8,3.3c0,0,0,0,0,0c-0.5,0.5-0.6,1.3-0.4,2c0.4,1.3,1.5,2.6,0.9,4.2C0,11.7,0,12.6,0,12.6c1.2,0.3,2.1,0.9,2.6,1.5
	c0.7,0.8,0.9,1.7,0.9,1.7h1.2c0,0,0.2-0.8,0.9-1.7c0.5-0.6,1.4-1.2,2.6-1.5C8.3,12.6,8.3,11.7,6.9,9.5z"/>
</svg>
