<?xml version="1.0" encoding="iso-8859-1"?>
<!-- Generator: Adobe Illustrator 19.0.0, SVG Export Plug-In . SVG Version: 6.00 Build 0)  -->
<svg version="1.1" id="Capa_1" xmlns="http://www.w3.org/2000/svg" xmlns:xlink="http://www.w3.org/1999/xlink" x="0px" y="0px"
	 viewBox="0 0 296 296" style="enable-background:new 0 0 296 296;" xml:space="preserve">
<g>
	<path d="M277.133,232.936c-5.719-7.799-13.497-11.921-22.493-11.921c-6.486,0-12.547,2.146-17.299,4.55l-1.248-4.243
		c0.161-0.156,0.327-0.305,0.487-0.464c16.535-16.477,19.116-40.67,5.754-54.081c-4.483-4.5-10.404-7.379-17.016-8.345
		c9.529-14.511,15.082-31.855,15.082-50.475c0-10.564-1.791-20.717-5.077-30.176c12.065-7.378,20.136-20.675,20.136-35.823
		C255.46,18.822,236.637,0,213.501,0c-15.305,0-28.717,8.24-36.046,20.514c-9.198-3.086-19.038-4.762-29.263-4.762
		c-10.128,0-19.877,1.646-29.001,4.677C111.85,8.202,98.464,0,83.194,0C60.057,0,41.235,18.822,41.235,41.959
		c0,15.042,7.96,28.254,19.885,35.662c-3.32,9.506-5.133,19.713-5.133,30.337c0,18.604,5.543,35.936,15.058,50.438
		c-6.747,0.915-12.791,3.813-17.351,8.389c-13.362,13.411-10.781,37.725,5.754,54.202c0.116,0.116,0.237,0.224,0.354,0.338
		l-1.229,4.23c-4.734-2.386-10.763-4.511-17.214-4.511c-8.999,0-16.78,4.126-22.504,11.931c-7.281,9.928-9.139,23.733-4.848,36.029
		c4.605,13.194,15.276,22.682,30.047,26.714c0.687,0.188,1.395,0.282,2.106,0.282H249.87c0.712,0,1.42-0.095,2.106-0.282
		c14.752-4.027,25.41-13.507,30.013-26.693C286.287,256.709,284.426,242.881,277.133,232.936z M65.028,178.078
		c3.291-3.302,7.634-3.995,10.697-3.995c7.055,0,14.866,3.587,20.896,9.596c5.257,5.238,8.62,11.628,9.472,17.993
		c0.745,5.578-0.589,10.401-3.758,13.582c-3.291,3.303-7.634,3.996-10.697,3.996c-7.055,0-14.866-3.587-20.897-9.597
		C60.629,199.578,58.013,185.118,65.028,178.078z M57.235,41.959C57.235,27.646,68.88,16,83.194,16
		c8.694,0,16.398,4.301,21.111,10.883C89.018,35.19,76.335,47.7,67.801,62.846C61.398,58.114,57.235,50.515,57.235,41.959z
		 M213.501,16c14.314,0,25.959,11.646,25.959,25.959c0,8.652-4.26,16.324-10.787,21.044c-8.492-15.143-21.131-27.66-36.371-35.998
		C197.007,20.354,204.753,16,213.501,16z M231.001,178.078c7.015,7.04,4.398,21.5-5.713,31.575
		c-6.031,6.01-13.843,9.598-20.896,9.597c-3.064,0-7.407-0.693-10.698-3.996c-3.169-3.181-4.503-8.004-3.758-13.582
		c0.852-6.365,4.215-12.755,9.472-17.993c6.03-6.009,13.842-9.596,20.896-9.596C223.367,174.083,227.71,174.776,231.001,178.078z
		 M114.847,90.333c4.418,0,8,3.582,8,8s-3.582,8-8,8s-8-3.582-8-8S110.429,90.333,114.847,90.333z M189.847,98.333
		c0,4.418-3.582,8-8,8s-8-3.582-8-8s3.582-8,8-8S189.847,93.915,189.847,98.333z M119.451,137.998
		c0.059,13.68,12.928,24.793,28.741,24.793c15.814,0,28.685-11.113,28.743-24.792c6.531,4.945,10.585,11.507,10.585,18.594
		c0,14.946-18.01,27.573-39.328,27.573c-21.317,0-39.326-12.627-39.326-27.573C108.866,149.506,112.92,142.943,119.451,137.998z
		 M160.938,137.905c0,4.816-5.837,8.886-12.746,8.886c-6.908,0-12.744-4.069-12.744-8.886c0-4.816,5.836-8.885,12.744-8.885
		C155.101,129.02,160.938,133.089,160.938,137.905z M113.67,226.547c6.337-6.36,9.319-15.182,8.498-25.012
		c12.649-3.376,20.832,4.23,26.179,13.053c4.374-9.68,13.163-16.259,25.525-13.22c-0.851,9.864,2.128,18.671,8.487,25.054
		c2.229,2.237,4.817,4.046,7.664,5.422c-2.768,13.405-14.176,30.073-41.677,47.62c-27.602-17.611-38.991-34.337-41.704-47.768
		C109.239,230.341,111.607,228.617,113.67,226.547z"/>
</g>
<g>
</g>
<g>
</g>
<g>
</g>
<g>
</g>
<g>
</g>
<g>
</g>
<g>
</g>
<g>
</g>
<g>
</g>
<g>
</g>
<g>
</g>
<g>
</g>
<g>
</g>
<g>
</g>
<g>
</g>
</svg>
