<?xml version="1.0" encoding="utf-8"?>
<!-- Generator: Adobe Illustrator 25.1.0, SVG Export Plug-In . SVG Version: 6.00 Build 0)  -->
<svg version="1.1" id="Layer_1" xmlns="http://www.w3.org/2000/svg" xmlns:xlink="http://www.w3.org/1999/xlink" x="0px" y="0px"
	 viewBox="0 0 9.5049 15.0012" enable-background="new 0 0 9.5049 15.0012" xml:space="preserve">
<g id="Group_952" transform="translate(0 0)">
	<path id="Path_770_1_" d="M3.3922,1.1552c0.0213,0.13,0.0765,0.2521,0.16,0.354l0.74,0.744h0.927l0.662-0.7l0.015-0.016
		c0.0898-0.1017,0.1497-0.2263,0.173-0.36l0.174-1.048c0.0105-0.0441,0.0245-0.0872,0.042-0.129h-3.1
		c0.0163,0.0386,0.0297,0.0784,0.04,0.119L3.3922,1.1552z"/>
	<path id="Path_771_1_" d="M4.4262,3.0902c-0.554-0.55-1.218-1.22-1.244-1.25c-0.1459-0.171-0.2427-0.3783-0.28-0.6l-0.173-1.029
		c-0.0174-0.0946-0.086-0.1717-0.178-0.2c-0.0928-0.0284-0.1937-0.0007-0.259,0.071l-1.899,2.076
		c-0.5587,0.6126-0.5171,1.5616,0.093,2.123l1.5,1.378L4.4262,3.0902z"/>
	<path id="Path_773_1_" d="M3.7332,9.7572v4.994c0,0.1381,0.1119,0.25,0.25,0.25c0.1381,0,0.25-0.1119,0.25-0.25v-0.82l0.5-0.166
		v0.736c0,0.1381,0.1119,0.25,0.25,0.25s0.25-0.1119,0.25-0.25v-0.9l0.5-0.166v0.819c0,0.1381,0.1119,0.25,0.25,0.25
		s0.25-0.1119,0.25-0.25l0,0v-0.989l0.5-0.167v0.653c0,0.1381,0.1119,0.25,0.25,0.25s0.25-0.1119,0.25-0.25v-6.936l-2.509,2.507
		C4.4596,9.5855,4.1062,9.7406,3.7332,9.7572z"/>
	<path id="Path_774_1_" d="M9.1102,2.2002l-1.941-2.119c-0.0656-0.0714-0.1664-0.0986-0.259-0.07
		c-0.0917,0.0286-0.1602,0.1056-0.178,0.2l-0.173,1.05c-0.0361,0.217-0.1297,0.4204-0.271,0.589
		c-0.012,0.016-0.025,0.028-0.037,0.042l-3.945,4.16c-0.3767,0.3922-0.4545,0.9838-0.192,1.46l0.674,1.229
		c0.1494,0.2779,0.4225,0.4678,0.735,0.511c0.3121,0.0363,0.6241-0.0686,0.851-0.286l4.689-4.689
		C9.6334,3.7095,9.6542,2.7931,9.1102,2.2002z"/>
</g>
</svg>
