<svg xmlns="http://www.w3.org/2000/svg" width="9.173" height="16.663" viewBox="0 0 9.173 16.663">
  <g id="Group_939" data-name="Group 939" transform="translate(-68.624)">
    <path id="Path_683" data-name="Path 683" d="M196.265,67.146a7.764,7.764,0,0,0-.311-1.281,11.02,11.02,0,0,1-.443-1.7h-1.359C194.741,66.117,195.616,66.865,196.265,67.146Z" transform="translate(-118.677 -60.665)"/>
    <path id="Path_684" data-name="Path 684" d="M160.167,2.683h3.1a10.756,10.756,0,0,1-.055-1.082V.372A.372.372,0,0,0,162.84,0h-2.673Z" transform="translate(-86.547)"/>
    <path id="Path_685" data-name="Path 685" d="M91.483,2.683V0H88.81a.372.372,0,0,0-.372.372V1.6q0,.544-.054,1.081Z" transform="translate(-18.682)"/>
    <path id="Path_686" data-name="Path 686" d="M76.947,67.737a5.612,5.612,0,0,1-2.325-3.57h-1V66.7a.409.409,0,0,1-.819,0V64.167h-1a5.612,5.612,0,0,1-2.325,3.57,3.016,3.016,0,0,1-.756.309,45.08,45.08,0,0,0,.425,8.96.371.371,0,0,0,.368.322h7.4a.371.371,0,0,0,.368-.322,45.056,45.056,0,0,0,.425-8.96A3.017,3.017,0,0,1,76.947,67.737Z" transform="translate(0 -60.665)"/>
    <path id="Path_687" data-name="Path 687" d="M74.561,64.167H73.2a11,11,0,0,1-.444,1.7,7.773,7.773,0,0,0-.312,1.283C73.1,66.868,73.971,66.12,74.561,64.167Z" transform="translate(-3.614 -60.665)"/>
  </g>
</svg>
