<?xml version="1.0" encoding="utf-8"?>
<!-- Generator: Adobe Illustrator 25.1.0, SVG Export Plug-In . SVG Version: 6.00 Build 0)  -->
<svg version="1.1" id="Layer_1" xmlns="http://www.w3.org/2000/svg" xmlns:xlink="http://www.w3.org/1999/xlink" x="0px" y="0px"
	 viewBox="0 0 13.0017 19.3578" enable-background="new 0 0 13.0017 19.3578" xml:space="preserve">
<g id="Group_1015" transform="translate(-0.091 -0.198)">
	<path id="Path_802" d="M6.7673,4.876h0.77c0.3045-0.0075,0.5745,0.1947,0.653,0.489c0.127,0.429,0.242,0.862,0.383,1.288
		c0.1899,0.5906,0.4273,1.1648,0.71,1.717c0.224,0.431,0.453,0.858,0.7,1.276c0.3403,0.5667,0.7209,1.1081,1.139,1.62
		c0.245,0.3,0.5,0.588,0.747,0.89c0.3209,0.4099,0.563,0.8758,0.714,1.374c0.1175,0.3694,0.1781,0.7544,0.18,1.142
		c-0.0127,0.3124-0.0498,0.6234-0.111,0.93c-0.007,0.048-0.069,0.1-0.118,0.125c-0.3384,0.1683-0.6975,0.2913-1.068,0.366
		c-0.468,0.1-0.938,0.188-1.409,0.268c-0.252,0.042-0.509,0.058-0.763,0.078c-0.429,0.036-0.86,0.07-1.29,0.093
		c-0.346,0.019-0.694,0.026-1.041,0.026c-0.458,0-0.917-0.007-1.375-0.023c-0.36-0.011-0.722-0.023-1.08-0.064
		c-0.617-0.072-1.236-0.155-1.851-0.253c-0.5704-0.0854-1.1269-0.2462-1.655-0.478c-0.096-0.0371-0.161-0.1272-0.166-0.23
		c-0.028-0.294-0.064-0.589-0.066-0.885c0.0033-0.6298,0.1591-1.2495,0.454-1.806c0.2128-0.3917,0.4742-0.7549,0.778-1.081
		c0.4749-0.5389,0.9094-1.1121,1.3-1.715c0.3801-0.5742,0.717-1.1759,1.008-1.8c0.2253-0.4967,0.431-1.0017,0.617-1.515
		c0.15-0.413,0.264-0.841,0.378-1.266c0.0743-0.3389,0.3792-0.577,0.726-0.567C6.2773,4.883,6.5233,4.876,6.7673,4.876z
		 M4.8013,13.198c-0.0002,1.083,0.8776,1.9611,1.9607,1.9613s1.9611-0.8776,1.9613-1.9607c0-0.0002,0-0.0004,0-0.0007
		c-0.0002-1.083-0.8783-1.9609-1.9613-1.9607C5.6792,11.2375,4.8015,12.1152,4.8013,13.198z"/>
	<path id="Path_803" d="M1.2143,16.493c0.152,0.041,0.277,0.077,0.4,0.106c0.362,0.083,0.721,0.172,1.084,0.242
		c0.327,0.064,0.658,0.11,0.988,0.154c0.294,0.0373,0.589,0.0673,0.885,0.09c0.968,0.072,1.939,0.1,2.91,0.077
		c0.415-0.009,0.828-0.041,1.241-0.07c0.343-0.024,0.686-0.046,1.027-0.091c0.448-0.057,0.894-0.123,1.337-0.208
		c0.356-0.068,0.706-0.171,1.058-0.258c0.048-0.012,0.1-0.019,0.171-0.033c-0.025,0.061-0.036,0.1-0.056,0.136
		c-0.5016,0.896-1.2541,1.6259-2.165,2.1c-0.5237,0.2805-1.0818,0.4916-1.66,0.628c-0.7137,0.1658-1.4482,0.2234-2.179,0.171
		c-0.9391-0.0493-1.8572-0.2967-2.694-0.726c-0.5941-0.3019-1.1308-0.7053-1.586-1.192c-0.2845-0.2983-0.5258-0.6349-0.717-1
		C1.2404,16.5782,1.2257,16.5361,1.2143,16.493z"/>
	<path id="Path_804" d="M0.4513,7.249c-0.1392,0.0105-0.2691-0.0705-0.321-0.2C0.068,6.9362,0.0806,6.7967,0.1623,6.697
		c0.0748-0.0904,0.1542-0.1769,0.238-0.259c0.1-0.1,0.191-0.2,0.291-0.293c0.1062-0.1106,0.2724-0.1386,0.409-0.069
		c0.1457,0.0634,0.2285,0.2187,0.2,0.375c-0.0136,0.0748-0.0483,0.1442-0.1,0.2c-0.158,0.171-0.322,0.336-0.493,0.493
		c-0.0737,0.0527-0.1532,0.0966-0.237,0.131L0.4513,7.249z"/>
	<path id="Path_805" d="M1.3233,5.389C1.31,5.521,1.2336,5.6383,1.1183,5.704c-0.1143,0.0749-0.2639,0.0672-0.37-0.019
		c-0.0816-0.0647-0.1585-0.1352-0.23-0.211c-0.115-0.108-0.215-0.221-0.322-0.334C0.065,4.9967,0.0747,4.774,0.2181,4.6427
		C0.277,4.5887,0.3526,4.5563,0.4323,4.551c0.0804-0.0077,0.1606,0.0159,0.224,0.066c0.2,0.178,0.384,0.368,0.566,0.562
		C1.2664,5.2435,1.3004,5.3143,1.3233,5.389z"/>
	<path id="Path_806" d="M2.8053,4.9c-0.0068,0.1026-0.0518,0.1989-0.126,0.27c-0.159,0.16-0.317,0.322-0.478,0.478
		C2.0659,5.7874,1.843,5.7907,1.7036,5.6552C1.7028,5.6545,1.7021,5.6537,1.7013,5.653c-0.137-0.1428-0.137-0.3682,0-0.511
		c0.154-0.159,0.31-0.317,0.47-0.47C2.2904,4.524,2.507,4.5005,2.655,4.6196c0.0236,0.019,0.0445,0.0409,0.0623,0.0654
		C2.7564,4.7523,2.786,4.8246,2.8053,4.9z"/>
	<path id="Path_807" d="M2.7843,6.892c0.0174,0.145-0.0689,0.2825-0.207,0.33C2.4517,7.2847,2.3,7.2588,2.2023,7.158
		c-0.178-0.166-0.348-0.339-0.51-0.519C1.562,6.498,1.5678,6.2789,1.7053,6.145C1.8412,6.0099,2.0609,6.0104,2.196,6.1463
		C2.1992,6.1495,2.2023,6.1527,2.2053,6.156c0.155,0.146,0.307,0.294,0.458,0.442C2.7516,6.6686,2.7974,6.7797,2.7843,6.892z"/>
	<path id="Path_808" d="M11.0553,5.233c0-0.1,0-0.209,0-0.314c-0.01-0.1991,0.1434-0.3686,0.3425-0.3786
		c0.0071-0.0004,0.0143-0.0005,0.0215-0.0004c0.1944,0.0008,0.3513,0.1591,0.3505,0.3535c0,0.0058-0.0002,0.0117-0.0005,0.0175
		c0,0.213,0,0.425,0,0.638c0.0055,0.1999-0.152,0.3663-0.3518,0.3719c-0.0024,0.0001-0.0048,0.0001-0.0072,0.0001
		c-0.1972-0.0014-0.3559-0.1623-0.3545-0.3595c0-0.0055,0.0002-0.011,0.0005-0.0165C11.0543,5.441,11.0553,5.338,11.0553,5.233z"/>
	<path id="Path_809" d="M12.4133,3.882c0.109,0,0.216,0,0.325,0c0.1961,0.0003,0.3547,0.1596,0.3544,0.3556
		c-0.0003,0.1855-0.1434,0.3395-0.3284,0.3534c-0.24,0.011-0.48,0.012-0.718,0c-0.1886-0.0098-0.3336-0.1706-0.3238-0.3593
		c0.0002-0.0039,0.0005-0.0078,0.0008-0.0117c0.0044-0.1883,0.1586-0.3386,0.347-0.338C12.1843,3.882,12.2993,3.882,12.4133,3.882z"
		/>
	<path id="Path_810" d="M10.4133,3.883c0.111,0,0.223,0,0.334,0c0.1911-0.0033,0.3487,0.1488,0.352,0.3399c0,0,0,0.0001,0,0.0001
		c0.0079,0.1952-0.1429,0.3603-0.338,0.37c-0.228,0.007-0.458,0.007-0.686,0c-0.1944-0.0105-0.3476-0.1694-0.351-0.364
		c0.0096-0.1949,0.1709-0.3478,0.366-0.347C10.1973,3.882,10.3043,3.883,10.4133,3.883z"/>
	<path id="Path_811" d="M11.7683,3.241c0,0.111,0.005,0.223,0,0.334c-0.0019,0.1955-0.1619,0.3524-0.3574,0.3505
		c-0.1348-0.0013-0.2571-0.0791-0.3156-0.2005c-0.0236-0.048-0.0363-0.1006-0.037-0.154c0-0.216,0-0.432,0-0.646
		c-0.0139-0.1967,0.1343-0.3674,0.331-0.3812c0.1967-0.0139,0.3674,0.1343,0.3812,0.331c0.0008,0.0114,0.0011,0.0228,0.0008,0.0342
		C11.7733,3.02,11.7683,3.131,11.7683,3.241z"/>
	<path id="Path_812" fill="#FFFFFF" d="M4.8013,13.198c0.0054-1.083,0.8877-1.9566,1.9707-1.9513
		c1.083,0.0054,1.9566,0.8877,1.9513,1.9707c-0.0054,1.083-0.8877,1.9566-1.9707,1.9513c-0.0144-0.0001-0.0288-0.0003-0.0433-0.0007
		C5.6465,15.1324,4.8029,14.2614,4.8013,13.198z M8.1213,13.185c-0.007-0.1855-0.0519-0.3676-0.132-0.535
		c-0.073-0.147-0.087-0.152-0.2-0.038c-0.262,0.262-0.525,0.526-0.787,0.787c-0.0927,0.1052-0.2446,0.1347-0.37,0.072
		c-0.1466-0.0699-0.2088-0.2453-0.1389-0.3919c0.0169-0.0354,0.0406-0.067,0.0699-0.0931c0.273-0.28,0.548-0.556,0.821-0.836
		c0.079-0.083,0.069-0.115-0.041-0.166c-0.6769-0.3191-1.4843-0.029-1.8034,0.6479c-0.3191,0.6769-0.029,1.4843,0.6479,1.8034
		c0.2248,0.106,0.4744,0.1481,0.7215,0.1217C7.6004,14.4687,8.1189,13.8817,8.1213,13.185z"/>
	<path id="Path_813" d="M8.1213,13.185c-0.0029,0.6963-0.5213,1.2827-1.212,1.371c-0.7445,0.0814-1.414-0.4561-1.4954-1.2006
		c-0.0814-0.7445,0.4561-1.414,1.2006-1.4954c0.2496-0.0273,0.5019,0.0153,0.7288,0.1229c0.11,0.05,0.121,0.082,0.041,0.166
		c-0.273,0.28-0.548,0.556-0.821,0.836c-0.1213,0.108-0.1321,0.2938-0.0241,0.4151c0.0261,0.0293,0.0577,0.0531,0.0931,0.0699
		c0.1254,0.0627,0.2773,0.0332,0.37-0.072c0.262-0.261,0.525-0.525,0.787-0.787c0.113-0.114,0.127-0.109,0.2,0.038
		C8.0696,12.8167,8.1145,12.9992,8.1213,13.185z"/>
	<circle id="Ellipse_427" cx="8.0923" cy="2.596" r="0.356"/>
	<circle id="Ellipse_428" cx="6.8553" cy="3.236" r="0.356"/>
	<circle id="Ellipse_429" cx="5.6953" cy="2.476" r="0.356"/>
	<circle id="Ellipse_430" cx="6.7623" cy="1.765" r="0.356"/>
	<circle id="Ellipse_431" cx="7.7373" cy="0.745" r="0.356"/>
	<circle id="Ellipse_432" cx="8.9063" cy="1.409" r="0.356"/>
	<circle id="Ellipse_433" cx="9.6563" cy="0.554" r="0.356"/>
	<circle id="Ellipse_434" cx="4.5163" cy="1.631" r="0.356"/>
	<circle id="Ellipse_435" cx="3.5803" cy="0.686" r="0.356"/>
	<circle id="Ellipse_436" cx="5.1063" cy="0.554" r="0.356"/>
</g>
</svg>
