<svg xmlns="http://www.w3.org/2000/svg" width="21.98" height="16.099" viewBox="0 0 21.98 16.099">
  <path id="Path_701" data-name="Path 701" d="M21.806,48.354l-5.415-7.529a2,2,0,0,0-1.623-.832h-.884c-.212,0-2.895,5.225-2.895,5.225S8.306,39.993,8.1,39.993H7.211a2,2,0,0,0-1.623.832L.173,48.354A.922.922,0,0,0,.327,49.6l1,.842a.922.922,0,0,0,1.247-.052l2.918-2.914L5.08,55.084A.922.922,0,0,0,6,56.092h9.984a.922.922,0,0,0,.918-1.008l-.407-7.611,2.918,2.914a.922.922,0,0,0,1.247.052l1-.842A.922.922,0,0,0,21.806,48.354ZM8.686,52.546H7.044a.551.551,0,0,1,0-1.1H8.686a.551.551,0,0,1,0,1.1Zm2.3,1.728a.49.49,0,1,1,.49-.49A.49.49,0,0,1,10.99,54.274Zm0-3.162a.49.49,0,1,1,.49-.49A.49.49,0,0,1,10.99,51.112Zm0-3.162a.49.49,0,1,1,.49-.49A.49.49,0,0,1,10.99,47.951Zm3.946,4.6H13.294a.551.551,0,0,1,0-1.1h1.642a.551.551,0,0,1,0,1.1Z" transform="translate(0 -39.993)"/>
</svg>
