<?xml version="1.0" encoding="iso-8859-1"?>
<!-- Generator: Adobe Illustrator 16.0.0, SVG Export Plug-In . SVG Version: 6.00 Build 0)  -->
<!DOCTYPE svg PUBLIC "-//W3C//DTD SVG 1.1//EN" "http://www.w3.org/Graphics/SVG/1.1/DTD/svg11.dtd">
<svg version="1.1" id="Capa_1" xmlns="http://www.w3.org/2000/svg" xmlns:xlink="http://www.w3.org/1999/xlink" x="0px" y="0px"
	 width="191.473px" height="191.474px" viewBox="0 0 191.473 191.474" style="enable-background:new 0 0 191.473 191.474;"
	 xml:space="preserve">
<g>
	<path d="M173.809,71.255c-9.743,0-17.671,7.922-17.671,17.659c0,4.752,1.912,9.185,5.188,12.443l-12.458,6.235l-35.244-35.247
		c5.857-5.087,9.256-12.458,9.256-20.328c0-14.9-12.105-27.024-27.012-27.024c-14.909,0-27.024,12.124-27.024,27.024
		c0,7.809,3.349,15.128,9.109,20.216l-35.341,35.354l-12.458-6.235c3.267-3.252,5.176-7.685,5.176-12.446
		c0-9.739-7.925-17.655-17.67-17.655C7.919,71.249,0,79.171,0,88.904c0,8.695,6.312,15.941,14.678,17.397v31.158
		c0,1.668,1.321,2.995,2.981,3.087c14.19,12.087,75.167,12.257,78.078,12.257c2.91,0,63.884-0.158,78.078-12.257
		c1.662-0.079,2.978-1.419,2.978-3.087v-31.129c8.33-1.437,14.681-8.707,14.681-17.417C191.467,79.171,183.54,71.255,173.809,71.255
		z M20.901,135.183c1.209-4.025,27.964-11.533,74.83-11.533c46.865,0,73.633,7.514,74.826,11.387
		c-1.193,4.031-27.961,11.539-74.826,11.539C48.865,146.575,22.11,139.067,20.901,135.183z M175.976,153.304
		c0.756,1.547,0.122,3.41-1.425,4.164c-9.194,4.494-37.131,9.013-78.82,9.013c-41.102,0-70.022-5.48-78.608-8.927
		c-1.595-0.646-2.375-2.467-1.72-4.049c0.643-1.614,2.454-2.381,4.046-1.73c6.884,2.766,34.574,8.471,76.282,8.471
		c46.597,0,70.138-5.492,76.081-8.391C173.358,151.111,175.221,151.751,175.976,153.304z"/>
</g>
<g>
</g>
<g>
</g>
<g>
</g>
<g>
</g>
<g>
</g>
<g>
</g>
<g>
</g>
<g>
</g>
<g>
</g>
<g>
</g>
<g>
</g>
<g>
</g>
<g>
</g>
<g>
</g>
<g>
</g>
</svg>
