<svg xmlns="http://www.w3.org/2000/svg" width="12.843" height="20.038" viewBox="0 0 12.843 20.038">
  <g id="Group_942" data-name="Group 942" transform="translate(-54.071 0.003)">
    <path id="Path_692" data-name="Path 692" d="M66.907,212.7l-.139-.774a.4.4,0,0,0-.464-.326,39.133,39.133,0,0,1-5.8.347,38.711,38.711,0,0,1-5.851-.355.4.4,0,0,0-.469.342l-.1.752a.4.4,0,0,0,.362.457,6.106,6.106,0,0,1,3.212,1.507,6.4,6.4,0,0,1,1.919,2.61.433.433,0,0,0,.408.287h1.278a.433.433,0,0,0,.407-.287,6.421,6.421,0,0,1,1.918-2.61,6.318,6.318,0,0,1,2.993-1.48.4.4,0,0,0,.336-.47Z" transform="translate(0 -197.508)"/>
    <path id="Path_693" data-name="Path 693" d="M61.586,10.192a3.687,3.687,0,0,0,2.237-.761,1.019,1.019,0,0,1,.633-.221h.831a1.016,1.016,0,0,1,.633.221,3.686,3.686,0,0,0,2.237.761,2.767,2.767,0,0,0,2.83-2.7,5.594,5.594,0,0,0-.514-2.36A26.773,26.773,0,0,1,68.63.363h0a.5.5,0,1,0-.961.268l.8,2.89a1.416,1.416,0,0,1-.561,1.546A7.521,7.521,0,0,0,65.6,7.6a.468.468,0,0,1-.419.259h-.615a.468.468,0,0,1-.418-.259A7.522,7.522,0,0,0,61.83,5.065a1.417,1.417,0,0,1-.561-1.546l.8-2.889a.5.5,0,1,0-.961-.268,26.491,26.491,0,0,1-1.844,4.771,5.593,5.593,0,0,0-.514,2.361A2.767,2.767,0,0,0,61.586,10.192Z" transform="translate(-4.373)"/>
  </g>
</svg>
