<?xml version="1.0" encoding="utf-8"?>
<!-- Generator: Adobe Illustrator 25.1.0, SVG Export Plug-In . SVG Version: 6.00 Build 0)  -->
<svg version="1.1" id="Layer_1" xmlns="http://www.w3.org/2000/svg" xmlns:xlink="http://www.w3.org/1999/xlink" x="0px" y="0px"
	 viewBox="0 0 17.6607 10.405" enable-background="new 0 0 17.6607 10.405" xml:space="preserve">
<g id="Group_975" transform="translate(5.261 -3.716)">
	<g id="Group_972" transform="translate(-5.261 3.716)">
		<g id="Group_971">
			<path id="Path_745" d="M15.7507,5.935h-0.232c-1.0531-0.0098-2.0675-0.3981-2.858-1.094l-1.282,1.494l-0.733-0.851l1.215-1.409
				l-0.605-0.585l-1.34,1.554l-0.733-0.851l1.271-1.476l-0.605-0.585l-1.4,1.621l-0.728-0.851l1.328-1.543l-1.175-1.137
				C7.733,0.0819,7.5432,0.0023,7.3447,0c-0.492,0.0394-0.8605,0.4676-0.826,0.96v0.524c0.1081,1.6009-1.0898,2.9917-2.689,3.122
				c-1.1041-0.0448-2.0696-0.7578-2.437-1.8l-0.127-0.322c-0.0903-0.2571-0.3277-0.4336-0.6-0.446
				c-0.3952,0.0324-0.691,0.3764-0.664,0.772v5.144h17.659C17.64,6.8891,16.8128,6.0147,15.7507,5.935z"/>
		</g>
	</g>
	<g id="Group_974" transform="translate(-5.061 12.876)">
		<g id="Group_973">
			<path id="Path_746" d="M-0.0003,0c0.2728,0.7255,0.9544,1.2164,1.729,1.245h13.822c0.7727-0.0306,1.4519-0.5211,1.724-1.245
				H-0.0003z"/>
		</g>
	</g>
</g>
</svg>
