<?xml version="1.0" encoding="iso-8859-1"?>
<!-- Generator: Adobe Illustrator 18.0.0, SVG Export Plug-In . SVG Version: 6.00 Build 0)  -->
<!DOCTYPE svg PUBLIC "-//W3C//DTD SVG 1.1//EN" "http://www.w3.org/Graphics/SVG/1.1/DTD/svg11.dtd">
<svg version="1.1" id="Capa_1" xmlns="http://www.w3.org/2000/svg" xmlns:xlink="http://www.w3.org/1999/xlink" x="0px" y="0px"
	 viewBox="0 0 413.055 413.055" style="enable-background:new 0 0 413.055 413.055;" xml:space="preserve">
<g>
	<path d="M296.606,202.064c-27.764-3.608-45.748-6.977-57.472-13.602c4.056-7.419,10.347-16.018,18.922-27.155
		c1.38-1.791,1.216-4.328-0.384-5.927c-1.598-1.6-4.136-1.762-5.927-0.384c-11.17,8.601-19.83,14.835-27.2,18.858
		c-6.6-11.727-9.955-29.692-13.556-57.406c-0.292-2.242-2.202-3.92-4.463-3.92s-4.171,1.678-4.463,3.92
		c-3.601,27.705-6.957,45.681-13.556,57.406c-7.37-4.023-16.031-10.258-27.201-18.858c-1.791-1.38-4.329-1.216-5.927,0.384
		c-1.6,1.599-1.764,4.136-0.384,5.927c8.575,11.138,14.867,19.738,18.924,27.158c-11.725,6.627-29.703,9.991-57.473,13.599
		c-2.242,0.292-3.92,2.202-3.92,4.463s1.678,4.171,3.92,4.463c27.761,3.608,45.75,6.973,57.474,13.596
		c-4.056,7.42-10.348,16.021-18.925,27.161c-1.38,1.791-1.216,4.328,0.384,5.927c1.598,1.6,4.136,1.764,5.927,0.384
		c11.167-8.599,19.826-14.833,27.195-18.856c6.602,11.729,9.96,29.688,13.562,57.404c0.292,2.242,2.202,3.92,4.463,3.92
		s4.171-1.678,4.463-3.92c3.601-27.706,6.958-45.682,13.556-57.407c7.37,4.023,16.031,10.259,27.201,18.859
		c0.814,0.627,1.78,0.935,2.744,0.935c0.007,0,0.022,0.001,0.021,0c2.485,0,4.5-2.015,4.5-4.5c0-1.169-0.445-2.234-1.177-3.034
		c-8.462-10.997-14.681-19.513-18.701-26.868c11.725-6.627,29.702-9.992,57.473-13.6c2.242-0.292,3.92-2.202,3.92-4.463
		S298.849,202.356,296.606,202.064z M206.526,146.765c2.507,13.078,5.472,22.931,9.797,30.826c-3.434,1.195-6.646,1.808-9.796,1.808
		s-6.361-0.611-9.796-1.808C201.056,169.697,204.02,159.841,206.526,146.765z M146.764,206.528
		c13.107-2.511,22.977-5.483,30.881-9.825c2.318,6.776,2.318,12.873-0.001,19.648C169.741,212.014,159.87,209.041,146.764,206.528z
		 M206.528,266.289c-2.508-13.081-5.478-22.928-9.806-30.824c3.438-1.197,6.653-1.811,9.805-1.811c3.149,0,6.362,0.612,9.796,1.808
		C211.999,243.356,209.034,253.213,206.528,266.289z M206.527,224.654c-8.864,0-17.484,3.346-28.401,10.248
		c13.7-21.774,13.699-34.977-0.001-56.752c10.919,6.903,19.537,10.248,28.402,10.248s17.483-3.345,28.402-10.248
		c-13.7,21.775-13.701,34.978-0.001,56.752C224.012,228,215.392,224.654,206.527,224.654z M235.413,216.357
		c-2.322-6.781-2.325-12.883-0.002-19.665c7.904,4.342,17.77,7.321,30.88,9.834C253.183,209.039,243.317,212.016,235.413,216.357z"
		/>
	<path d="M206.527,94.25c-61.91,0-112.277,50.367-112.277,112.277c0,61.909,50.367,112.275,112.277,112.275
		s112.277-50.366,112.277-112.275C318.805,144.617,268.438,94.25,206.527,94.25z M206.527,309.803
		c-56.947,0-103.277-46.329-103.277-103.275c0-56.947,46.33-103.277,103.277-103.277s103.277,46.33,103.277,103.277
		C309.805,263.474,263.475,309.803,206.527,309.803z"/>
	<path d="M206.527,24.892c-100.153,0-181.635,81.481-181.635,181.635s81.481,181.635,181.635,181.635
		s181.635-81.482,181.635-181.635S306.681,24.892,206.527,24.892z M206.527,379.162c-95.191,0-172.635-77.443-172.635-172.635
		S111.336,33.893,206.527,33.893s172.635,77.443,172.635,172.635S301.719,379.162,206.527,379.162z"/>
	<path d="M206.527,0C92.647,0,0,92.647,0,206.527s92.647,206.527,206.527,206.527s206.527-92.647,206.527-206.527
		S320.407,0,206.527,0z M206.527,404.055C97.61,404.055,9,315.444,9,206.527S97.61,9,206.527,9s197.527,88.61,197.527,197.527
		S315.444,404.055,206.527,404.055z"/>
	<path d="M374.881,208.811c0.977-0.855,1.537-2.089,1.537-3.387c0-1.298-0.561-2.532-1.537-3.387
		c-6.691-5.854-11.832-10.799-17.297-16.705c3.673-6.939,7.307-12.941,12.151-20.17c0.723-1.078,0.944-2.415,0.608-3.669
		c-0.336-1.254-1.196-2.302-2.361-2.874c-7.974-3.92-14.219-7.366-21.031-11.662c1.752-7.658,3.708-14.396,6.516-22.626
		c0.419-1.229,0.287-2.578-0.361-3.703c-0.649-1.124-1.752-1.913-3.025-2.165c-8.718-1.722-15.641-3.435-23.33-5.82
		c-0.291-7.845-0.146-14.861,0.438-23.544c0.087-1.296-0.391-2.565-1.309-3.483c-0.918-0.918-2.172-1.403-3.483-1.309
		c-5.913,0.397-21.222,0.527-24.043,0.418c-2.31-7.499-3.984-14.313-5.67-22.853c-0.252-1.274-1.041-2.377-2.165-3.026
		c-1.125-0.65-2.476-0.778-3.702-0.362c-8.413,2.868-15.266,4.848-23.116,6.626c-4.173-6.648-7.554-12.797-11.391-20.606
		c-0.572-1.165-1.62-2.026-2.874-2.362c-1.253-0.335-2.592-0.115-3.67,0.608c-7.382,4.946-13.488,8.631-20.614,12.381
		c-2.873-2.668-14.625-14.995-16.339-16.955c-0.854-0.978-2.09-1.538-3.388-1.538c-1.299,0-2.533,0.561-3.388,1.538
		c-1.707,1.952-12.52,13.423-16.705,17.295c-1.052-0.557-14.036-8.04-20.169-12.15c-0.27-0.181-0.556-0.33-0.853-0.446
		c-0.89-0.352-1.878-0.412-2.819-0.162c-1.254,0.336-2.302,1.197-2.874,2.362c-1.702,3.464-9.231,17.179-11.659,21.03
		c-7.659-1.753-14.398-3.709-22.628-6.516c-1.228-0.418-2.578-0.288-3.702,0.361s-1.913,1.752-2.165,3.025
		c-1.721,8.718-3.434,15.641-5.819,23.329C110,86.401,95.005,86.264,89.1,85.867c-1.314-0.086-2.565,0.392-3.483,1.309
		c-0.918,0.918-1.396,2.188-1.309,3.483c0.595,8.867,0.732,15.998,0.417,24.045c-7.504,2.31-14.318,3.983-22.854,5.668
		c-1.274,0.252-2.377,1.041-3.026,2.165c-0.648,1.124-0.78,2.474-0.361,3.703c2.868,8.409,4.848,15.261,6.626,23.115
		c-6.654,4.177-12.802,7.558-20.606,11.392c-1.165,0.572-2.026,1.62-2.362,2.874c-0.336,1.254-0.114,2.592,0.608,3.67
		c4.946,7.38,8.631,13.487,12.383,20.614c-5.345,5.754-10.408,10.612-16.957,16.339c-0.978,0.854-1.538,2.09-1.538,3.388
		c0,1.298,0.561,2.533,1.537,3.388c6.692,5.853,11.833,10.798,17.297,16.705c-3.672,6.94-7.307,12.943-12.151,20.172
		c-0.723,1.078-0.944,2.416-0.608,3.67s1.197,2.302,2.362,2.874c7.981,3.921,14.227,7.366,21.03,11.658
		c-1.752,7.658-3.709,14.397-6.517,22.628c-0.419,1.229-0.287,2.579,0.361,3.703c0.649,1.124,1.752,1.913,3.026,2.165
		c8.721,1.721,15.645,3.434,23.332,5.818c0.289,7.85,0.143,14.863-0.439,23.543c-0.087,1.295,0.391,2.565,1.309,3.483
		c0.917,0.917,2.174,1.392,3.483,1.309c5.914-0.396,10.968-0.581,15.904-0.581c2.641,0,5.318,0.055,8.14,0.165
		c2.311,7.501,3.985,14.316,5.671,22.855c0.252,1.273,1.041,2.376,2.165,3.025c0.691,0.399,1.469,0.603,2.25,0.603
		c0.489,0,0.98-0.08,1.453-0.241c8.411-2.87,15.263-4.849,23.114-6.628c4.176,6.655,7.557,12.803,11.391,20.608
		c0.572,1.165,1.62,2.026,2.874,2.362c0.384,0.103,0.775,0.153,1.165,0.153c0.883,0,1.757-0.26,2.505-0.762
		c7.382-4.946,13.488-8.63,20.615-12.382c5.756,5.346,10.613,10.409,16.338,16.956c0.854,0.978,2.09,1.538,3.388,1.538
		c1.298,0,2.533-0.561,3.388-1.537c5.853-6.692,10.798-11.833,16.705-17.297c6.943,3.674,12.946,7.308,20.169,12.15
		c0.749,0.501,1.622,0.762,2.506,0.762c0.39,0,0.781-0.051,1.164-0.153c1.254-0.336,2.302-1.196,2.874-2.361
		c3.921-7.977,7.367-14.221,11.662-21.029c7.655,1.751,14.393,3.708,22.626,6.517c0.473,0.161,0.964,0.241,1.453,0.241
		c0.781,0,1.559-0.203,2.25-0.602c1.124-0.649,1.913-1.752,2.165-3.025c1.723-8.722,3.435-15.646,5.819-23.332
		c2.641-0.098,17.634,0.04,23.544,0.436c0.101,0.007,0.201,0.01,0.301,0.01c0.006,0,0.013,0,0.02,0c2.485,0,4.5-2.015,4.5-4.5
		c0-0.247-0.02-0.49-0.058-0.727c-0.57-8.669-0.699-15.699-0.39-23.617c7.502-2.309,14.316-3.983,22.855-5.67
		c1.273-0.252,2.376-1.041,3.025-2.165c0.648-1.124,0.78-2.474,0.361-3.702c-2.867-8.41-4.847-15.263-6.626-23.114
		c6.65-4.176,12.799-7.558,20.606-11.395c1.165-0.573,2.026-1.62,2.362-2.874c0.336-1.254,0.114-2.592-0.608-3.671
		c-4.946-7.378-8.631-13.484-12.382-20.61C363.267,219.398,368.33,214.54,374.881,208.811z M365.142,205.424
		c-4.285,3.873-8.017,7.496-11.781,11.443c-0.521-0.47-1.141-0.829-1.835-1.015c-1.254-0.335-2.592-0.113-3.67,0.609
		c-0.75,0.503-1.483,0.989-2.21,1.467c-4.106-4.364-8.117-8.286-12.784-12.505c4.567-4.127,8.506-7.97,12.524-12.229
		c0.626,0.414,1.258,0.834,1.901,1.265c0.748,0.502,1.621,0.762,2.505,0.762c0.39,0,0.781-0.051,1.165-0.153
		c0.846-0.227,1.582-0.707,2.157-1.344C356.96,197.771,360.762,201.464,365.142,205.424z M318.56,238.908
		c4.183,6.247,7.462,11.577,10.64,17.373c-6.224,1.805-12.219,3.228-19.451,4.658c-1.273,0.251-2.376,1.04-3.024,2.164
		c-0.648,1.124-0.78,2.474-0.362,3.702c2.424,7.108,4.211,13.103,5.781,19.528c-1.388,0.029-14.088-0.14-19.993-0.534
		c-1.3-0.088-2.564,0.392-3.482,1.309c-0.918,0.917-1.395,2.186-1.309,3.481c0.5,7.495,0.676,13.75,0.529,20.362
		c-6.298-1.55-12.2-3.317-19.172-5.697c-1.23-0.418-2.579-0.288-3.703,0.361c-1.125,0.648-1.914,1.752-2.166,3.025
		c-1.457,7.372-2.906,13.46-4.759,19.81c-5.678-3.125-10.923-6.359-17.047-10.464c-1.078-0.724-2.417-0.944-3.669-0.608
		c-1.254,0.336-2.302,1.196-2.874,2.361c-3.313,6.74-6.289,12.244-9.724,17.901c-4.679-4.491-8.907-8.973-13.757-14.52
		c-0.854-0.978-2.089-1.538-3.388-1.538c-1.298,0-2.532,0.561-3.387,1.537c-4.947,5.656-9.246,10.203-14.025,14.775
		c-3.355-5.546-6.279-10.969-9.529-17.583c-0.572-1.165-1.62-2.026-2.874-2.362c-1.254-0.334-2.592-0.115-3.67,0.608
		c-6.241,4.182-11.57,7.46-17.372,10.64c-1.805-6.225-3.227-12.22-4.654-19.451c-0.252-1.273-1.041-2.376-2.165-3.024
		c-1.124-0.649-2.474-0.783-3.701-0.363c-7.114,2.424-13.111,4.212-19.534,5.781c-0.133-6.479,0.047-12.639,0.539-19.992
		c0.086-1.295-0.391-2.565-1.308-3.483c-0.918-0.918-2.188-1.402-3.483-1.309c-5.913,0.396-10.967,0.579-15.903,0.579
		c-1.469,0-2.952-0.019-4.461-0.052c1.549-6.292,3.314-12.195,5.693-19.173c0.419-1.228,0.287-2.578-0.362-3.702
		c-0.648-1.124-1.752-1.913-3.025-2.165c-7.363-1.453-13.448-2.902-19.805-4.758c3.124-5.676,6.359-10.921,10.463-17.045
		c0.723-1.078,0.944-2.416,0.608-3.669c-0.336-1.254-1.196-2.302-2.361-2.874c-6.738-3.313-12.241-6.288-17.9-9.725
		c4.488-4.677,8.971-8.905,14.518-13.757c0.978-0.854,1.538-2.09,1.538-3.388c0-1.298-0.561-2.532-1.537-3.388
		c-5.654-4.944-10.2-9.243-14.774-14.025c5.545-3.354,10.969-6.279,17.584-9.53c1.165-0.573,2.026-1.62,2.362-2.874
		c0.336-1.254,0.114-2.592-0.608-3.671c-4.182-6.238-7.46-11.566-10.641-17.369c6.23-1.807,12.226-3.229,19.452-4.656
		c1.273-0.252,2.376-1.041,3.025-2.165c0.648-1.124,0.78-2.474,0.361-3.702c-2.424-7.107-4.212-13.104-5.781-19.53
		c1.382-0.028,14.082,0.141,19.995,0.535c0.1,0.007,0.2,0.01,0.3,0.01c1.189,0,2.336-0.472,3.183-1.318
		c0.918-0.918,1.395-2.188,1.308-3.482c-0.503-7.493-0.678-13.747-0.53-20.361c6.297,1.55,12.2,3.316,19.174,5.694
		c0.473,0.161,0.963,0.241,1.452,0.241c0.781,0,1.559-0.203,2.25-0.603c1.124-0.649,1.913-1.752,2.165-3.025
		c1.455-7.369,2.904-13.456,4.759-19.806c5.679,3.126,10.923,6.36,17.044,10.463c0.749,0.501,1.622,0.762,2.506,0.762h0.001h0.001
		c0.39,0,0.781-0.051,1.165-0.153c1.254-0.336,2.302-1.197,2.874-2.362c2.678-5.45,5.135-10.091,7.793-14.658
		c0.629-1.081,1.27-2.159,1.929-3.242c3.226,3.097,12.251,12.796,13.756,14.518c0.854,0.978,2.089,1.538,3.388,1.538l0,0
		c0.001,0,0.001,0,0.001,0c1.298,0,2.532-0.56,3.387-1.537c4.862-5.559,9.098-10.045,13.778-14.539
		c0.082-0.078,0.165-0.156,0.247-0.234c3.355,5.547,6.281,10.971,9.531,17.585c0.573,1.165,1.621,2.026,2.875,2.362
		c0.383,0.103,0.774,0.153,1.164,0.153c0.884,0,1.757-0.261,2.506-0.763c6.235-4.18,11.564-7.459,17.369-10.643
		c1.806,6.229,3.229,12.226,4.656,19.454c0.252,1.273,1.041,2.376,2.165,3.025c0.692,0.399,1.469,0.603,2.25,0.603
		c0.489,0,0.98-0.08,1.453-0.241c7.107-2.425,13.102-4.213,19.529-5.783c0.133,6.483-0.047,12.643-0.539,19.994
		c-0.087,1.295,0.39,2.565,1.308,3.483c0.917,0.917,2.177,1.391,3.483,1.308c5.921-0.396,10.977-0.579,15.913-0.579
		c1.467,0,2.946,0.019,4.452,0.051c-1.549,6.295-3.315,12.197-5.693,19.171c-0.419,1.229-0.287,2.577,0.361,3.701
		c0.648,1.125,1.751,1.914,3.024,2.165c7.373,1.458,13.461,2.908,19.808,4.761c-3.125,5.677-6.359,10.922-10.463,17.046
		c-0.723,1.078-0.944,2.415-0.608,3.669c0.336,1.254,1.196,2.302,2.361,2.874c6.742,3.316,12.246,6.291,17.9,9.725
		c-4.489,4.677-8.971,8.906-14.518,13.757c-0.977,0.854-1.537,2.09-1.537,3.388c0,1.298,0.56,2.532,1.537,3.387
		c5.654,4.946,10.2,9.246,14.772,14.025c-5.544,3.354-10.967,6.279-17.582,9.529c-1.165,0.572-2.025,1.62-2.362,2.873
		C317.616,236.492,317.838,237.83,318.56,238.908z M164.41,53.604c4.607,2.98,8.87,5.535,13.39,8.024
		c0.237,0.131,0.474,0.262,0.712,0.393c-0.174,0.342-0.319,0.698-0.401,1.075c-0.067,0.313-0.103,0.633-0.103,0.957
		c0,1.298,0.561,2.533,1.537,3.388c0.68,0.595,1.34,1.178,1.989,1.756c-1.396,2.256-7.173,12.466-8.771,15.587
		c-4.94-3.195-9.477-5.904-14.364-8.562c-0.228-0.124-0.458-0.247-0.687-0.371c0.237-0.71,0.48-1.43,0.73-2.162
		c0.419-1.229,0.287-2.578-0.361-3.703c-0.438-0.759-1.094-1.347-1.858-1.738C158.292,64.865,163.63,55.127,164.41,53.604z
		 M205.424,47.914c1.684,1.862,9.212,9.652,11.442,11.777c-0.469,0.521-0.827,1.141-1.013,1.833
		c-0.336,1.254-0.114,2.592,0.608,3.67c0.504,0.751,0.99,1.485,1.469,2.213c-0.161,0.152-0.328,0.306-0.488,0.458
		c-4.178,3.952-7.96,7.836-12.019,12.326c-1.197-1.324-8.957-9.427-11.835-12.156c-0.129-0.121-0.262-0.244-0.392-0.367
		c0.413-0.625,0.834-1.257,1.265-1.9c0.723-1.079,0.944-2.417,0.608-3.671c-0.227-0.846-0.707-1.583-1.344-2.158
		C197.162,56.675,204.823,48.578,205.424,47.914z M351.033,178.513c-0.625-0.318-1.315-0.505-2.033-0.505
		c-1.298,0-2.533,0.561-3.388,1.538c-0.595,0.68-1.177,1.339-1.755,1.988c-5.097-3.154-9.986-5.903-15.586-8.771
		c3.345-5.172,6.155-9.901,8.934-15.053c0.712,0.236,1.432,0.479,2.164,0.729c0.473,0.161,0.963,0.241,1.452,0.241
		c0.781,0,1.559-0.203,2.25-0.603c0.758-0.438,1.345-1.093,1.736-1.856c4.765,2.915,9.391,5.499,14.645,8.188
		C356.314,169.261,353.647,173.725,351.033,178.513z M338.859,142.066c-0.688-0.146-1.402-0.146-2.095,0.039
		c-1.254,0.336-2.302,1.197-2.874,2.362c-0.398,0.811-0.79,1.597-1.18,2.374c-5.737-1.727-11.172-3.117-17.325-4.438
		c1.892-5.857,3.382-11.154,4.733-16.852c0.746,0.044,1.504,0.092,2.278,0.144c0.1,0.007,0.2,0.01,0.3,0.01c0.007,0,0.016,0,0.02,0
		c2.158,0,3.958-1.521,4.395-3.549c5.342,1.578,10.469,2.873,16.229,4.108C341.564,131.76,340.145,136.763,338.859,142.066z
		 M317.905,93.588c-0.292,5.771-0.37,10.971-0.239,16.424c-0.701,0.037-1.392,0.221-2.013,0.579
		c-1.124,0.649-1.913,1.752-2.165,3.026c-0.175,0.887-0.35,1.749-0.525,2.601c-5.998-0.184-11.5-0.12-17.885,0.199
		c0.311-6.147,0.381-11.65,0.211-17.506c0.734-0.15,1.479-0.3,2.239-0.45c1.273-0.252,2.376-1.041,3.025-2.165
		c0.436-0.758,0.618-1.618,0.575-2.474C306.712,93.967,311.919,93.891,317.905,93.588z M288.897,84.531
		c-0.667,0.218-1.284,0.576-1.792,1.083c-0.918,0.918-1.395,2.188-1.309,3.483c0.061,0.901,0.114,1.779,0.165,2.648
		c-5.835,1.374-11.236,2.887-17.221,4.821c-1.291-6.019-2.649-11.352-4.329-16.963c0.671-0.335,1.351-0.673,2.046-1.015
		c1.165-0.572,2.025-1.62,2.361-2.874c0.227-0.845,0.179-1.723-0.084-2.539c5.427-1.307,10.525-2.751,16.144-4.565
		C286.09,74.26,287.361,79.301,288.897,84.531z M246.516,53.032c2.631,5.144,5.163,9.685,8.002,14.34
		c-0.588,0.383-1.093,0.887-1.451,1.508c-0.65,1.124-0.781,2.474-0.362,3.702c0.292,0.855,0.571,1.69,0.845,2.516
		c-5.284,2.841-10.11,5.7-15.389,9.116c-2.805-5.48-5.496-10.279-8.569-15.264c0.561-0.497,1.131-1,1.714-1.51
		c0.977-0.855,1.537-2.09,1.537-3.388c0-0.875-0.273-1.712-0.74-2.434C237.009,58.953,241.559,56.237,246.516,53.032z
		 M126.265,69.715c5.494,1.774,10.497,3.195,15.8,4.48c-0.146,0.688-0.147,1.402,0.039,2.097c0.336,1.254,1.198,2.302,2.363,2.874
		c0.812,0.398,1.6,0.791,2.377,1.181c-1.729,5.739-3.118,11.173-4.438,17.323c-5.855-1.891-11.152-3.381-16.852-4.733
		c0.045-0.748,0.093-1.505,0.145-2.277c0.087-1.296-0.39-2.565-1.308-3.483c-0.62-0.62-1.403-1.02-2.244-1.199
		C123.73,80.623,125.027,75.486,126.265,69.715z M110.012,95.385c0.037,0.701,0.221,1.393,0.579,2.015
		c0.649,1.124,1.752,1.913,3.025,2.165c0.887,0.176,1.749,0.351,2.601,0.526c-0.183,5.993-0.12,11.603,0.198,17.885
		c-6.244-0.313-11.645-0.382-17.502-0.211c-0.15-0.733-0.301-1.478-0.45-2.236c-0.252-1.273-1.041-2.377-2.165-3.026
		c-0.759-0.438-1.621-0.619-2.478-0.576c0.144-5.582,0.067-10.882-0.231-16.777C97.625,95.352,108.313,95.426,110.012,95.385z
		 M84.534,124.156c0.218,0.666,0.573,1.283,1.08,1.79c0.918,0.918,2.182,1.399,3.482,1.309c0.904-0.061,1.783-0.114,2.65-0.165
		c1.374,5.838,2.887,11.238,4.82,17.225c-6.016,1.29-11.349,2.648-16.96,4.327c-0.335-0.67-0.672-1.351-1.014-2.045
		c-0.572-1.165-1.62-2.026-2.874-2.362c-0.847-0.227-1.726-0.179-2.542,0.085c-1.307-5.43-2.752-10.527-4.567-16.145
		C74.258,126.965,79.301,125.693,84.534,124.156z M67.373,158.535c0.383,0.588,0.887,1.094,1.508,1.452
		c0.691,0.399,1.469,0.604,2.25,0.604c0.489,0,0.979-0.079,1.452-0.24c0.855-0.292,1.69-0.571,2.517-0.845
		c2.838,5.282,5.696,10.107,9.113,15.389c-5.48,2.805-10.28,5.497-15.263,8.568c-0.497-0.561-0.998-1.129-1.508-1.712
		c-0.854-0.977-2.089-1.538-3.388-1.538c-0.876,0-1.713,0.273-2.434,0.74c-2.668-4.907-5.383-9.458-8.589-14.414
		C58.172,163.909,62.714,161.377,67.373,158.535z M47.912,207.631c4.285-3.873,8.017-7.495,11.783-11.444
		c0.521,0.469,1.14,0.827,1.833,1.013c0.383,0.102,0.774,0.153,1.164,0.153c0.884,0,1.757-0.261,2.506-0.762
		c0.75-0.503,1.483-0.989,2.21-1.467c4.108,4.367,8.119,8.289,12.786,12.507c-4.568,4.127-8.507,7.97-12.526,12.228
		c-0.626-0.413-1.258-0.833-1.901-1.264c-1.08-0.724-2.416-0.944-3.67-0.608c-0.845,0.227-1.582,0.707-2.157,1.343
		C56.095,215.282,52.294,211.59,47.912,207.631z M62.021,234.543c0.625,0.318,1.315,0.504,2.032,0.504
		c1.298,0,2.533-0.561,3.388-1.537c0.595-0.681,1.178-1.34,1.757-1.99c5.102,3.157,9.99,5.906,15.587,8.771
		c-3.345,5.171-6.154,9.9-8.933,15.051c-0.711-0.237-1.431-0.479-2.164-0.729c-1.23-0.418-2.579-0.288-3.703,0.361
		c-0.759,0.438-1.347,1.094-1.738,1.858c-4.759-2.913-9.386-5.496-14.644-8.186C56.74,243.796,59.407,239.332,62.021,234.543z
		 M74.193,270.996c0.307,0.064,0.617,0.109,0.931,0.109c0.39,0,0.78-0.051,1.164-0.153c1.254-0.336,2.302-1.197,2.875-2.362
		c0.399-0.813,0.792-1.601,1.183-2.379c5.745,1.73,11.179,3.12,17.324,4.439c-1.892,5.859-3.382,11.157-4.732,16.852
		c-0.746-0.044-1.504-0.092-2.277-0.143c-1.296-0.092-2.563,0.391-3.481,1.309c-0.619,0.618-1.017,1.403-1.197,2.241
		c-5.355-1.582-10.493-2.88-16.268-4.117C71.488,281.299,72.908,276.297,74.193,270.996z M95.149,319.465
		c0.292-5.766,0.37-10.962,0.24-16.414c0.7-0.037,1.391-0.228,2.012-0.587c1.124-0.649,1.913-1.752,2.165-3.026
		c0.175-0.887,0.35-1.749,0.525-2.602c6.005,0.185,11.506,0.122,17.885-0.197c-0.312,6.149-0.381,11.651-0.211,17.503
		c-0.734,0.15-1.479,0.3-2.239,0.45c-1.273,0.252-2.376,1.041-3.025,2.165c-0.438,0.759-0.618,1.62-0.575,2.478
		c-1.82-0.046-3.599-0.069-5.363-0.069C102.902,319.165,99.191,319.262,95.149,319.465z M124.154,328.516
		c0.667-0.218,1.288-0.571,1.795-1.078c0.918-0.917,1.396-2.187,1.309-3.483c-0.061-0.901-0.114-1.779-0.165-2.648
		c5.832-1.373,11.234-2.887,17.224-4.819c1.291,6.021,2.648,11.353,4.326,16.96c-0.67,0.335-1.35,0.672-2.044,1.014
		c-1.165,0.572-2.026,1.62-2.362,2.874c-0.227,0.846-0.179,1.725,0.085,2.542c-5.429,1.307-10.528,2.752-16.145,4.566
		C126.965,338.793,125.693,333.749,124.154,328.516z M166.54,360.022c-2.63-5.141-5.162-9.683-8.003-14.342
		c0.588-0.382,1.094-0.887,1.452-1.508c0.648-1.124,0.78-2.474,0.361-3.702c-0.292-0.855-0.571-1.69-0.845-2.516
		c5.281-2.837,10.107-5.696,15.391-9.112c2.805,5.479,5.496,10.278,8.568,15.262c-0.561,0.497-1.131,1-1.714,1.51
		c-0.977,0.855-1.537,2.09-1.537,3.388c0,0.875,0.273,1.711,0.739,2.432C176.047,354.102,171.496,356.816,166.54,360.022z
		 M207.631,365.142c-3.871-4.284-7.493-8.016-11.443-11.78c0.47-0.521,0.828-1.141,1.014-1.834c0.336-1.253,0.114-2.591-0.608-3.67
		c-0.503-0.751-0.989-1.484-1.468-2.211c4.365-4.107,8.286-8.118,12.506-12.787c4.126,4.566,7.969,8.506,12.228,12.527
		c-0.412,0.625-0.833,1.258-1.264,1.901c-0.723,1.078-0.944,2.416-0.608,3.67c0.227,0.846,0.707,1.582,1.344,2.157
		C215.283,356.96,211.59,360.761,207.631,365.142z M248.645,359.45c-4.849-3.137-9.312-5.803-14.103-8.417
		c0.318-0.624,0.504-1.315,0.504-2.031c0-1.298-0.561-2.532-1.537-3.387c-0.681-0.596-1.34-1.179-1.99-1.757
		c3.156-5.101,5.905-9.989,8.77-15.588c5.171,3.345,9.903,6.155,15.056,8.934c-0.237,0.711-0.48,1.432-0.73,2.164
		c-0.418,1.229-0.286,2.578,0.363,3.702c0.437,0.757,1.091,1.344,1.854,1.735C253.918,349.568,251.336,354.194,248.645,359.45z
		 M286.79,343.34c-5.496-1.775-10.497-3.195-15.799-4.48c0.145-0.687,0.145-1.4-0.04-2.093c-0.336-1.254-1.197-2.302-2.362-2.875
		c-0.811-0.398-1.599-0.791-2.376-1.181c1.728-5.74,3.117-11.175,4.438-17.328c5.855,1.892,11.152,3.383,16.854,4.735
		c-0.045,0.747-0.093,1.505-0.145,2.277c-0.086,1.295,0.391,2.564,1.309,3.482c0.618,0.618,1.4,1.018,2.239,1.198
		C289.325,332.43,288.027,337.566,286.79,343.34z M303.042,317.664c-0.037-0.699-0.221-1.39-0.579-2.011
		c-0.649-1.124-1.752-1.913-3.025-2.165c-0.887-0.175-1.748-0.35-2.6-0.525c0.183-5.991,0.119-11.6-0.198-17.884
		c6.244,0.313,11.646,0.382,17.505,0.21c0.15,0.734,0.3,1.478,0.45,2.237c0.252,1.272,1.041,2.375,2.165,3.024
		c0.691,0.4,1.469,0.603,2.25,0.603c0.074,0,0.148-0.015,0.224-0.019c-0.144,5.581-0.067,10.877,0.231,16.77
		C313.609,317.609,308.493,317.531,303.042,317.664z M328.521,288.897c-0.217-0.666-0.573-1.285-1.08-1.792
		c-0.917-0.917-2.18-1.396-3.483-1.309c-0.904,0.061-1.781,0.114-2.648,0.165c-1.374-5.835-2.888-11.235-4.82-17.222
		c6.022-1.293,11.354-2.651,16.961-4.328c0.336,0.671,0.674,1.352,1.016,2.048c0.572,1.165,1.62,2.025,2.874,2.361
		c0.384,0.103,0.774,0.153,1.164,0.153c0.469,0,0.934-0.078,1.379-0.223c1.307,5.423,2.75,10.516,4.563,16.127
		C338.795,286.09,333.753,287.36,328.521,288.897z M345.681,254.52c-0.382-0.588-0.887-1.094-1.508-1.453
		c-1.125-0.65-2.475-0.781-3.702-0.362c-0.855,0.292-1.69,0.571-2.515,0.845c-2.836-5.276-5.695-10.103-9.113-15.39
		c5.481-2.806,10.28-5.497,15.263-8.569c0.498,0.561,1,1.13,1.51,1.713c0.854,0.977,2.089,1.537,3.387,1.537
		c0.875,0,1.711-0.273,2.432-0.739c2.668,4.907,5.383,9.457,8.589,14.412C354.881,249.145,350.338,251.678,345.681,254.52z"/>
</g>
<g>
</g>
<g>
</g>
<g>
</g>
<g>
</g>
<g>
</g>
<g>
</g>
<g>
</g>
<g>
</g>
<g>
</g>
<g>
</g>
<g>
</g>
<g>
</g>
<g>
</g>
<g>
</g>
<g>
</g>
</svg>
