<svg xmlns="http://www.w3.org/2000/svg" width="7.868" height="16.911" viewBox="0 0 7.868 16.911">
  <g id="Group_937" data-name="Group 937" transform="translate(-79.641)">
    <path id="Path_675" data-name="Path 675" d="M200.789,33.349l0-.305q0-.428-.034-.855h-1.015A1.7,1.7,0,0,0,200.789,33.349Z" transform="translate(-113.283 -30.362)"/>
    <path id="Path_676" data-name="Path 676" d="M89.859.976c-.028-.15-.058-.3-.093-.447L89.716.321A.417.417,0,0,0,89.311,0h-6.47a.417.417,0,0,0-.406.321l-.049.208c-.035.148-.066.3-.093.447Z" transform="translate(-2.5)"/>
    <path id="Path_677" data-name="Path 677" d="M85.751,32.19H84.162v1.538a.426.426,0,1,1-.852,0V32.19h-1.59a2.55,2.55,0,0,1-1.909,2.046l.1,12.623a.417.417,0,0,0,.417.414H82.55a.417.417,0,0,0,.416-.393l.66-11.572a.109.109,0,0,1,.218,0l.66,11.572a.417.417,0,0,0,.416.393h2.221a.417.417,0,0,0,.417-.414l.1-12.623A2.55,2.55,0,0,1,85.751,32.19Z" transform="translate(-0.161 -30.363)"/>
    <path id="Path_678" data-name="Path 678" d="M80.69,32.19H79.676q-.037.426-.034.854l0,.3A1.7,1.7,0,0,0,80.69,32.19Z" transform="translate(0 -30.363)"/>
  </g>
</svg>
