<?xml version="1.0" encoding="utf-8"?>
<!-- Generator: Adobe Illustrator 25.1.0, SVG Export Plug-In . SVG Version: 6.00 Build 0)  -->
<svg version="1.1" id="Layer_1" xmlns="http://www.w3.org/2000/svg" xmlns:xlink="http://www.w3.org/1999/xlink" x="0px" y="0px"
	 viewBox="0 0 15.473 6.9115" enable-background="new 0 0 15.473 6.9115" xml:space="preserve">
<path id="Shape-2" d="M14.457,4.977h-11c-0.8396,0-1.5204-0.6804-1.521-1.52l0,0C1.9345,3.406,1.9358,3.3549,1.94,3.304
	c0.0995-0.7885,0.7742-1.3773,1.569-1.369h9.755c0.1527,0,0.2765,0.1238,0.2765,0.2765S13.4167,2.488,13.264,2.488H3.509
	c-0.5132-0.0145-0.954,0.3619-1.02,0.871C2.4356,3.8909,2.8235,4.3654,3.3555,4.4188C3.356,4.4189,3.3565,4.4189,3.357,4.419l0,0
	c0.032,0,0.063,0,0.094,0h9.812c1.2203,0,2.2095-0.9892,2.2095-2.2095S14.4833,0,13.263,0l0,0H3.454
	C1.5442,0.0022-0.0022,1.5522,0,3.462c0,0.0013,0,0.0027,0,0.004l0,0c0,0.056,0,0.111,0,0.166
	c0.1209,1.8682,1.6882,3.3117,3.56,3.279h10.947c0.5341-0.0006,0.9666-0.4339,0.966-0.968v0c0-0.032,0-0.0653,0-0.1
	c-0.066-0.5091-0.5068-0.8855-1.02-0.871L14.457,4.977z"/>
</svg>
