<svg xmlns="http://www.w3.org/2000/svg" width="18.007" height="15.665" viewBox="0 0 18.007 15.665">
  <g id="Group_946" data-name="Group 946" transform="translate(0 -19.219)">
    <path id="Path_713" data-name="Path 713" d="M121.631,25.134a1.78,1.78,0,0,0,1.7-1.229,7.156,7.156,0,0,1-3.391,0A1.78,1.78,0,0,0,121.631,25.134Z" transform="translate(-112.627 -4.4)"/>
    <path id="Path_714" data-name="Path 714" d="M17.984,21.633a.413.413,0,0,0-.215-.236l-3.433-1.585a16.6,16.6,0,0,0-2.226-.586.409.409,0,0,0-.079-.008.4.4,0,0,0-.394.317,2.7,2.7,0,0,1-5.271,0,.4.4,0,0,0-.394-.317.409.409,0,0,0-.079.008,16.667,16.667,0,0,0-2.227.586L.237,21.4a.4.4,0,0,0-.214.236.4.4,0,0,0,.022.318l1.49,2.941a.4.4,0,0,0,.479.206l1.655-.491v9.869a.408.408,0,0,0,.408.407H13.93a.407.407,0,0,0,.406-.407V24.608l1.657.491a.4.4,0,0,0,.479-.206l1.491-2.941A.408.408,0,0,0,17.984,21.633Z" transform="translate(0 0)"/>
  </g>
</svg>
