<svg xmlns="http://www.w3.org/2000/svg" width="14.01" height="19.104" viewBox="0 0 14.01 19.104">
  <g id="Group_936" data-name="Group 936" transform="translate(-39.796 0.001)">
    <path id="Path_669" data-name="Path 669" d="M110.23,3.474l.184-.277L108.726.548l-.015-.023-.017.009a.546.546,0,0,0-.3.527C108.432,1.6,108.788,2.447,110.23,3.474Z" transform="translate(-64.206 -0.492)"/>
    <path id="Path_670" data-name="Path 670" d="M82.922,128.419a.321.321,0,0,0,.321.337H84.87V117.15H83.486Z" transform="translate(-40.365 -109.653)"/>
    <path id="Path_671" data-name="Path 671" d="M136.678,7.476,134.08.854a1.582,1.582,0,0,0-.915-.848L133.145,0a1.507,1.507,0,0,1,.111.769c-.178,1.5-1.734,2.978-4.624,4.382l-.273.411v.976h4.97l-.1-2.02,1.048,3.776a.321.321,0,0,0,.413.218l1.793-.613a.321.321,0,0,0,.2-.421Z" transform="translate(-82.894)"/>
    <path id="Path_672" data-name="Path 672" d="M128.359,117.15v11.606h5.259a.321.321,0,0,0,.321-.337l-.562-11.269Z" transform="translate(-82.894 -109.653)"/>
    <path id="Path_673" data-name="Path 673" d="M152.847,2.05a.545.545,0,0,0-.316-.561l-2.222,3.349C152.341,3.588,152.783,2.588,152.847,2.05Z" transform="translate(-103.438 -1.395)"/>
    <path id="Path_674" data-name="Path 674" d="M43.23.794A1.51,1.51,0,0,1,43.32.17a1.583,1.583,0,0,0-.9.844l-2.6,6.623a.321.321,0,0,0,.2.421l1.793.613a.321.321,0,0,0,.414-.218l1.051-3.781-.1,2.025H44.5V5.577a.48.48,0,0,1,.08-.265l.908-1.369C44.065,2.932,43.3,1.874,43.23.794Z" transform="translate(0 -0.16)"/>
  </g>
</svg>
