<svg xmlns="http://www.w3.org/2000/svg" width="20.183" height="16.026" viewBox="0 0 20.183 16.026">
  <path id="Path_700" data-name="Path 700" d="M84.263,10.817A.847.847,0,0,0,84.4,9.676L79.432,2.762A1.836,1.836,0,0,0,77.942,2h-.836V.788A.788.788,0,0,0,76.319,0H72.625a.788.788,0,0,0-.788.788V2H71a1.836,1.836,0,0,0-1.49.764L64.54,9.676a.847.847,0,0,0,.141,1.141l.914.773a.847.847,0,0,0,1.145-.048l2.313-2.311a3.376,3.376,0,0,0-.669,1.981,3.939,3.939,0,0,0,1.249,2.741,1.172,1.172,0,0,0-.417.9h0a1.175,1.175,0,0,0,1.175,1.175h8.161a1.175,1.175,0,0,0,1.175-1.175h0a1.172,1.172,0,0,0-.417-.9,3.938,3.938,0,0,0,1.249-2.741,3.376,3.376,0,0,0-.669-1.981L82.2,11.543a.847.847,0,0,0,1.145.048Z" transform="translate(-64.38)"/>
</svg>
