<?xml version="1.0" encoding="utf-8"?>
<!-- Generator: Adobe Illustrator 25.1.0, SVG Export Plug-In . SVG Version: 6.00 Build 0)  -->
<svg version="1.1" id="Layer_1" xmlns="http://www.w3.org/2000/svg" xmlns:xlink="http://www.w3.org/1999/xlink" x="0px" y="0px"
	 viewBox="0 0 15.3048 11.907" enable-background="new 0 0 15.3048 11.907" xml:space="preserve">
<g>
	<path d="M7.0235,11.907H0L0.7151,1.6566h3.6797l1.1208,6.9488c0.147,0.9114,0.9091,1.5784,1.8252,1.609L7.0235,11.907z"/>
	<path d="M7.3936,9.6979C6.7096,9.6917,6.1358,9.1996,6.0267,8.523L4.9193,1.6566h2.4743L7.3936,9.6979L7.3936,9.6979z"/>
	<polygon points="1.0087,1.1389 1.0087,0 14.2962,0 14.2962,1.1389 1.0087,1.1389 	"/>
	<path d="M7.9113,1.6566h2.4743L9.2782,8.523C9.169,9.1996,8.5953,9.6917,7.9113,9.6979L7.9113,1.6566L7.9113,1.6566z"/>
	<path d="M7.964,10.2144c0.9161-0.0306,1.6782-0.6976,1.8252-1.609L10.91,1.6566h3.6797l0.7152,10.2504H8.2814L7.964,10.2144z"/>
</g>
</svg>
