<svg xmlns="http://www.w3.org/2000/svg" width="13.627" height="9.962" viewBox="0 0 13.627 9.962">
  <g id="Group_944" data-name="Group 944" transform="translate(0 -39.851)">
    <path id="Path_704" data-name="Path 704" d="M46.846,142.071l2.5.292.068-.63-2.5-.272Z" transform="translate(-44.691 -96.937)"/>
    <path id="Path_705" data-name="Path 705" d="M196.1,141.461l-2.5.272.068.63,2.5-.292Z" transform="translate(-184.696 -96.937)"/>
    <path id="Path_706" data-name="Path 706" d="M35.578,40.191a.443.443,0,0,0-.431-.34H25.393a.443.443,0,0,0-.431.34l-.375,1.578H35.953Z" transform="translate(-23.456 0)"/>
    <path id="Path_707" data-name="Path 707" d="M13.622,103.411l-1.032-6.844H1.037L.005,103.411a.443.443,0,0,0,.438.509H5.914a.443.443,0,0,0,.427-.327l.473-1.747.473,1.747a.443.443,0,0,0,.427.327h5.47a.443.443,0,0,0,.438-.509ZM5.447,98.635l-.285,2.621a1.155,1.155,0,0,1-1.146,1.03,1.182,1.182,0,0,1-.126-.007l-1.58-.172a1.157,1.157,0,0,1-1.023-1.273l.285-2.622a.345.345,0,0,1,.38-.306l3.188.347A.345.345,0,0,1,5.447,98.635Zm5.871,3.473-1.58.172a1.177,1.177,0,0,1-.126.007,1.155,1.155,0,0,1-1.146-1.03l-.285-2.621a.345.345,0,0,1,.306-.38l3.188-.347a.345.345,0,0,1,.38.306l.285,2.621A1.157,1.157,0,0,1,11.318,102.108Z" transform="translate(0 -54.108)"/>
    <path id="Path_708" data-name="Path 708" d="M42.842,170.624a.466.466,0,0,0,.412.512l1.579.171a.465.465,0,0,0,.512-.412h0l.1-.963-2.5-.292Z" transform="translate(-40.869 -123.821)"/>
    <path id="Path_709" data-name="Path 709" d="M199.211,169.64l-2.5.292.1.963h0a.465.465,0,0,0,.512.412l1.579-.171a.466.466,0,0,0,.411-.513Z" transform="translate(-187.663 -123.82)"/>
  </g>
</svg>
