<?xml version="1.0" encoding="iso-8859-1"?>
<!-- Generator: Adobe Illustrator 16.0.0, SVG Export Plug-In . SVG Version: 6.00 Build 0)  -->
<!DOCTYPE svg PUBLIC "-//W3C//DTD SVG 1.1//EN" "http://www.w3.org/Graphics/SVG/1.1/DTD/svg11.dtd">
<svg version="1.1" id="Capa_1" xmlns="http://www.w3.org/2000/svg" xmlns:xlink="http://www.w3.org/1999/xlink" x="0px" y="0px"
	 width="424.212px" height="424.212px" viewBox="0 0 424.212 424.212" style="enable-background:new 0 0 424.212 424.212;"
	 xml:space="preserve">
<g>
	<g>
		<path d="M205.271,191.548h33.811c26.682,0,48.286-23.932,48.286-53.469v-33.479h89.558c8.355,0,16.347,1.515,23.82,4.16v-1.327
			c0-28.451-23.083-51.53-51.544-51.53h-62.64c-2.324-8.077-9.666-14.038-18.499-14.038h-91.773
			c-8.833,0-16.182,5.961-18.504,14.038H75.027c-28.467,0-51.523,23.079-51.523,51.53v1.327c7.448-2.645,15.44-4.16,23.794-4.16
			h109.686v33.486C156.977,167.616,178.587,191.548,205.271,191.548z M222.17,82.337c18.983,0,34.376,15.387,34.376,34.368
			c0,18.983-15.393,34.354-34.376,34.354c-18.977,0-34.368-15.371-34.368-34.354C187.802,97.724,203.193,82.337,222.17,82.337z"/>
		<path d="M376.925,123.927h-75.208v19.32c0,34.622-28.151,62.788-62.771,62.788h-33.809c-34.618,0-62.776-28.166-62.776-62.788
			v-19.32H47.298c-20.542,0-38.303,11.956-46.857,29.222C0.165,155.463,0,157.793,0,160.182v164.213
			c0,32.007,25.97,57.951,57.961,57.951h308.292c31.999,0,57.959-25.944,57.959-57.951V160.182c0-2.388-0.156-4.727-0.429-7.033
			C415.228,135.875,397.463,123.927,376.925,123.927z M43.475,326.795c0,2.669-2.164,4.829-4.829,4.829
			c-2.675,0-4.833-2.16-4.833-4.829v-14.483c0-2.665,2.158-4.829,4.833-4.829c2.665,0,4.829,2.164,4.829,4.829V326.795z
			 M43.475,283.519c0,2.669-2.164,4.809-4.829,4.809c-2.675,0-4.833-2.14-4.833-4.809v-28.793c0-2.693,2.158-4.838,4.833-4.838
			c2.665,0,4.829,2.145,4.829,4.838V283.519z M43.475,225.907c0,2.665-2.164,4.829-4.829,4.829c-2.675,0-4.833-2.164-4.833-4.829
			V197.1c0-2.669,2.158-4.827,4.833-4.827c2.665,0,4.829,2.158,4.829,4.827V225.907z M75.763,169.044h-8.139
			c-5.803,0-11.407,2.085-15.788,5.849c-0.927,0.806-2.047,1.192-3.178,1.192c-1.346,0-2.695-0.555-3.639-1.679
			c-1.747-2.02-1.521-5.056,0.487-6.799c6.142-5.31,13.992-8.235,22.111-8.235h8.137c2.679,0,4.815,2.152,4.815,4.827
			C80.578,166.866,78.441,169.044,75.763,169.044z M119.119,169.044h-14.481c-2.661,0-4.831-2.178-4.831-4.837
			c0-2.675,2.17-4.827,4.831-4.827h14.481c2.681,0,4.839,2.152,4.839,4.827C123.958,166.866,121.8,169.044,119.119,169.044z
			 M323.582,169.044h-14.483c-2.673,0-4.82-2.178-4.82-4.837c0-2.675,2.147-4.827,4.82-4.827h14.483
			c2.685,0,4.837,2.152,4.837,4.827C328.419,166.866,326.267,169.044,323.582,169.044z M383.213,174.414
			c-0.954,1.124-2.301,1.679-3.635,1.679c-1.143,0-2.257-0.395-3.183-1.192c-4.376-3.759-9.975-5.849-15.785-5.849h-8.127
			c-2.681,0-4.829-2.178-4.829-4.837c0-2.677,2.148-4.827,4.829-4.827h8.127c8.144,0,15.978,2.929,22.109,8.233
			C384.743,169.359,384.968,172.395,383.213,174.414z M394.421,326.795c0,2.669-2.147,4.829-4.833,4.829
			c-2.656,0-4.829-2.16-4.829-4.829v-14.483c0-2.665,2.173-4.829,4.829-4.829c2.686,0,4.833,2.164,4.833,4.829V326.795z
			 M394.421,283.519c0,2.669-2.147,4.809-4.833,4.809c-2.656,0-4.829-2.14-4.829-4.809v-28.793c0-2.693,2.173-4.838,4.829-4.838
			c2.686,0,4.833,2.145,4.833,4.838V283.519z M394.421,225.907c0,2.665-2.147,4.829-4.833,4.829c-2.656,0-4.829-2.164-4.829-4.829
			V197.1c0-2.669,2.173-4.827,4.829-4.827c2.686,0,4.833,2.158,4.833,4.827V225.907z"/>
	</g>
</g>
<g>
</g>
<g>
</g>
<g>
</g>
<g>
</g>
<g>
</g>
<g>
</g>
<g>
</g>
<g>
</g>
<g>
</g>
<g>
</g>
<g>
</g>
<g>
</g>
<g>
</g>
<g>
</g>
<g>
</g>
</svg>
