<?xml version="1.0" encoding="utf-8"?>
<!-- Generator: Adobe Illustrator 25.1.0, SVG Export Plug-In . SVG Version: 6.00 Build 0)  -->
<svg version="1.1" id="Layer_1" xmlns="http://www.w3.org/2000/svg" xmlns:xlink="http://www.w3.org/1999/xlink" x="0px" y="0px"
	 viewBox="0 0 20.061 7.804" enable-background="new 0 0 20.061 7.804" xml:space="preserve">
<g id="Group_978" transform="translate(1.742 -2.754)">
	<path id="Path_750" d="M18.317,7.457V5.842c0-0.556-0.524-1.045-1.274-1.19L10.056,3.3C9.81,3.252,9.568,3.384,9.568,3.567v1.044
		c0,0.538-0.773,0.9-1.462,0.682l-8.329-2.539c-2.339,1.532-1.369,3.935-0.975,4.7L18.317,7.457z"/>
	<path id="Path_751" d="M17.927,8.626H-1.35c-0.2159-0.0006-0.3914,0.1741-0.392,0.39c0,0.0003,0,0.0007,0,0.001v1.149
		c0,0.2165,0.1755,0.392,0.392,0.392h0h19.277c0.2165,0,0.392-0.1755,0.392-0.392l0,0V9.018c0.0006-0.2159-0.1741-0.3914-0.39-0.392
		C17.9283,8.626,17.9277,8.626,17.927,8.626z"/>
</g>
</svg>
