<?xml version="1.0" encoding="iso-8859-1"?>
<!-- Generator: Adobe Illustrator 18.1.1, SVG Export Plug-In . SVG Version: 6.00 Build 0)  -->
<svg version="1.1" id="Capa_1" xmlns="http://www.w3.org/2000/svg" xmlns:xlink="http://www.w3.org/1999/xlink" x="0px" y="0px"
	 viewBox="0 0 26 26" style="enable-background:new 0 0 26 26;" xml:space="preserve">
<g>
	<path style="fill:#030104;" d="M13,0C9.807,0,6,0.868,6,5v1.103V12v0.323c0,0.032,0.011,0.061,0.014,0.092
		c0.146,5.122,2.928,12.611,3.05,12.936C9.21,25.741,9.583,26,10,26h6c0.417,0,0.79-0.259,0.937-0.648
		C17.062,25.018,20,17.122,20,12V7.975V6.104V5C20,0.868,16.193,0,13,0z M16.735,8.666c0.421,0,0.831,0.046,1.235,0.114
		c-0.367,1.296-1.174,2.495-2.374,3.472c-0.245,0.198-0.607,0.105-1.583-0.211c-0.989-0.321-2.349-0.752-4.229-0.769
		C11.74,9.86,14.245,8.666,16.735,8.666z M15.297,24h-4.594c-0.639-1.821-2.387-7.096-2.662-11.012
		c2.581-0.351,4.249,0.175,5.479,0.573c0.614,0.199,1.21,0.393,1.779,0.393c0.453,0,0.891-0.122,1.308-0.461
		c0.526-0.428,0.989-0.893,1.39-1.387C17.963,16.062,15.985,22.038,15.297,24z"/>
</g>
<g>
</g>
<g>
</g>
<g>
</g>
<g>
</g>
<g>
</g>
<g>
</g>
<g>
</g>
<g>
</g>
<g>
</g>
<g>
</g>
<g>
</g>
<g>
</g>
<g>
</g>
<g>
</g>
<g>
</g>
</svg>
