<?xml version="1.0" encoding="utf-8"?>
<!-- Generator: Adobe Illustrator 25.1.0, SVG Export Plug-In . SVG Version: 6.00 Build 0)  -->
<svg version="1.1" id="Capa_1" xmlns="http://www.w3.org/2000/svg" xmlns:xlink="http://www.w3.org/1999/xlink" x="0px" y="0px"
	 viewBox="0 0 13.0631 13.0677" enable-background="new 0 0 13.0631 13.0677" xml:space="preserve">
<path id="Path_745" d="M11.4041,1.0457c-1.3977-1.3943-3.6603-1.3943-5.058,0l-5.3,5.3c-1.3948,1.3975-1.3948,3.6605,0,5.058
	c1.0653,1.0661,2.5109,1.6648,4.018,1.664c0.211,0.0004,0.3823-0.1703,0.3828-0.3812c0.0002-0.102-0.0404-0.1999-0.1128-0.2718
	l-2.363-2.362c-0.3318-0.3309-0.351-0.862-0.044-1.216l3,3c0.1531,0.1459,0.3955,0.1401,0.5415-0.013
	c0.1412-0.1481,0.141-0.3811-0.0005-0.529l-3-3l0.53-0.53l3,3c0.1528,0.1462,0.3953,0.1409,0.5415-0.012
	c0.1415-0.1479,0.1417-0.3809,0.0005-0.529l-3-3l0.53-0.531l3,3c0.1531,0.1459,0.3955,0.1401,0.5415-0.013
	c0.1412-0.1481,0.141-0.3811-0.0005-0.529l-3-3l0.53-0.53l3,3C9.2978,8.7628,9.54,8.751,9.6821,8.5943
	c0.1324-0.146,0.1324-0.3686,0-0.5146l-3-3l0.53-0.531l3,3c0.1462,0.1528,0.3887,0.1582,0.5415,0.012
	c0.1528-0.1462,0.1582-0.3887,0.012-0.5415c-0.0041-0.0042-0.0082-0.0084-0.0125-0.0125l-3-3l0.53-0.53l3,3
	c0.1567,0.1421,0.3989,0.1303,0.541-0.0264c0.1324-0.146,0.1324-0.3686,0-0.5146l-3-3c0.3539-0.3107,0.8882-0.2932,1.221,0.04
	l2.365,2.365c0.15,0.1491,0.3925,0.1484,0.5416-0.0016c0.0712-0.0716,0.1112-0.1684,0.1114-0.2694
	c0.0006-1.5071-0.5981-2.9526-1.664-4.018L11.4041,1.0457z"/>
</svg>
