<?xml version="1.0" encoding="utf-8"?>
<!-- Generator: Adobe Illustrator 25.1.0, SVG Export Plug-In . SVG Version: 6.00 Build 0)  -->
<svg version="1.1" id="Layer_1" xmlns="http://www.w3.org/2000/svg" xmlns:xlink="http://www.w3.org/1999/xlink" x="0px" y="0px"
	 viewBox="0 0 17.6646 9.354" enable-background="new 0 0 17.6646 9.354" xml:space="preserve">
<g>
	<g>
		<path d="M9.5051,1.0531L8.5839,0.3182c-0.4347-0.3519-1.0247-0.414-1.5215-0.1759C6.5552,0.3802,6.2447,0.8771,6.2447,1.4359
			v0.0104c0,0.2759-0.2598,0.4579-0.4968,0.3933L3.1396,1.1875V0.5562c0-0.2898-0.2277-0.5175-0.5175-0.5175H1.5526
			C0.6934,0.0387,0,0.7321,0,1.5912v1.5526h0.5175c1.8201,0,3.351,1.3542,3.6048,3.1051h1.284l1.7181-3.4363l0.8591,0.6004
			l-1.418,2.836h0.9108l1.1799-2.3703l0.6624,0.4658c0.0725,0.0414,0.1449,0.0828,0.2174,0.1139L8.6356,6.2489h0.9108l0.7555-1.5008
			c0.2898,0.0725,0.5796,0.1139,0.8798,0.1139c0.0725,0,0.1552,0,0.2277-0.0104L10.7057,6.249h1.2317
			c1.0989,0,2.0619-1.5146,2.4279-2.6997C12.6031,3.0382,10.9388,2.1966,9.5051,1.0531z M9.8777,3.4853L7.259,1.643
			c0.0431-0.2588-0.0196-0.4545,0.2484-0.5693c0.0725-0.0311,0.2485-0.0932,0.4244,0.0518l0.9316,0.7349
			c0.9108,0.7348,1.9252,1.3559,2.9912,1.8631C11.1818,3.8994,10.4573,3.8269,9.8777,3.4853z"/>
	</g>
</g>
<g>
	<g>
		<path d="M15.4979,3.8476c-0.0463-0.0092-0.0905-0.0264-0.1367-0.036c-0.2585,0.8502-0.7617,1.7568-1.4127,2.4373h3.7031
			C17.5848,5.0802,16.7002,4.0861,15.4979,3.8476z"/>
	</g>
</g>
<g>
	<g>
		<path d="M0.5175,4.1788H0v2.0701h3.0875C2.847,5.0693,1.7674,4.1788,0.5175,4.1788z"/>
	</g>
</g>
<g>
	<g>
		<path d="M0,7.2839v0.5175C0,8.6575,0.6964,9.354,1.5526,9.354h14.525c0.8561,0,1.5871-0.6964,1.5871-1.5526V7.2839
			C6.4528,7.2839,10.7031,7.2839,0,7.2839z"/>
	</g>
</g>
</svg>
