<?xml version="1.0" standalone="no"?>
<!DOCTYPE svg PUBLIC "-//W3C//DTD SVG 20010904//EN"
 "http://www.w3.org/TR/2001/REC-SVG-20010904/DTD/svg10.dtd">
<svg version="1.0" xmlns="http://www.w3.org/2000/svg"
 width="512.000000pt" height="512.000000pt" viewBox="0 0 512.000000 512.000000"
 preserveAspectRatio="xMidYMid meet">

<g transform="translate(0.000000,512.000000) scale(0.100000,-0.100000)"
fill="#000000" stroke="none">
<path d="M2070 4758 l65 -363 425 0 425 0 65 363 66 362 -556 0 -556 0 66
-362z"/>
<path d="M681 4575 c-349 -95 -645 -176 -657 -179 l-24 -6 0 -2195 0 -2195
2560 0 2560 0 0 2194 c0 2082 -1 2195 -17 2200 -253 74 -1317 355 -1323 349
-4 -4 -279 -824 -611 -1820 -332 -997 -606 -1813 -609 -1813 -3 0 -278 818
-611 1818 -407 1221 -610 1818 -620 1819 -8 1 -299 -76 -648 -172z m4069
-1830 l0 -185 -545 0 -545 0 0 185 0 185 545 0 545 0 0 -185z"/>
<path d="M2186 3993 c-3 -16 -15 -126 -28 -247 l-22 -218 209 -629 c116 -346
212 -629 215 -629 3 0 99 283 215 629 l209 629 -22 218 c-13 121 -25 231 -28
247 l-6 27 -368 0 -368 0 -6 -27z"/>
</g>
</svg>
