<?xml version="1.0" encoding="utf-8"?>
<!-- Generator: Adobe Illustrator 25.1.0, SVG Export Plug-In . SVG Version: 6.00 Build 0)  -->
<svg version="1.1" id="Capa_1" xmlns="http://www.w3.org/2000/svg" xmlns:xlink="http://www.w3.org/1999/xlink" x="0px" y="0px"
	 viewBox="0 0 14.98 8.4437" enable-background="new 0 0 14.98 8.4437" xml:space="preserve">
<path id="Path_760" d="M7.519,0C3.4,0,0,1.117,0,2.5c0,0.616,0.671,1.177,1.778,1.614c0.229-1.1,2.741-1.973,5.742-1.973
	s5.454,0.871,5.681,1.973c1.106-0.436,1.779-1,1.779-1.614C14.981,1.117,11.639,0,7.519,0z"/>
<path id="Path_761" d="M11.815,5.244c0.5453,0.1256,1.0769,0.3048,1.587,0.535c0.3219,0.1458,0.6021,0.37,0.815,0.652
	c0.4148-0.218,0.6976-0.6243,0.758-1.089V3.209C14.981,4.05,13.725,4.794,11.815,5.244z"/>
<path id="Path_762" d="M4.91,7.679C4.8971,7.6147,4.8894,7.5495,4.887,7.484V6.057c0.0028-0.1732,0.043-0.3438,0.118-0.5
	C2.125,5.209,0,4.291,0,3.206v2.139C0,6.415,2.078,7.329,4.91,7.679z"/>
<path id="Path_763" d="M10.063,7.912c0.5546,0.0694,1.0987,0.2065,1.62,0.408c0.4401,0.1797,0.936,0.163,1.363-0.046
	c0.3653-0.1608,0.6065-0.5162,0.621-0.915c-0.0217-0.4287-0.2924-0.8051-0.692-0.962c-0.905-0.4085-1.88-0.6393-2.872-0.68
	c0.0341,0.1088,0.0526,0.222,0.055,0.336v1.428C10.1539,7.6294,10.1217,7.7756,10.063,7.912z"/>
<path id="Path_764" d="M7.082,7.128H5.766V7.49c0.0498,0.4365,0.4396,0.7529,0.877,0.712h1.752
	c0.4385,0.0427,0.8302-0.2742,0.88-0.712V6.058c-0.0488-0.4384-0.441-0.7562-0.88-0.713H6.642
	C6.2044,5.3052,5.8148,5.6215,5.764,6.058v0.357h1.317c0.217-0.0115,0.4035,0.1523,0.42,0.369V6.79
	c-0.0337,0.2035-0.2139,0.3498-0.42,0.341L7.082,7.128z"/>
<path id="Path_765" d="M7.519,0C3.4,0,0,1.117,0,2.5c0,0.616,0.671,1.177,1.778,1.614c0.229-1.1,2.741-1.973,5.742-1.973
	s5.454,0.871,5.681,1.973c1.106-0.436,1.779-1,1.779-1.614C14.981,1.117,11.639,0,7.519,0z"/>
<path id="Path_766" d="M11.815,5.244c0.5453,0.1256,1.0769,0.3048,1.587,0.535c0.3219,0.1458,0.6021,0.37,0.815,0.652
	c0.4148-0.218,0.6976-0.6243,0.758-1.089V3.209C14.981,4.05,13.725,4.794,11.815,5.244z"/>
<path id="Path_767" d="M4.91,7.679C4.8971,7.6147,4.8894,7.5495,4.887,7.484V6.057c0.0028-0.1732,0.043-0.3438,0.118-0.5
	C2.125,5.209,0,4.291,0,3.206v2.139C0,6.415,2.078,7.329,4.91,7.679z"/>
<path id="Path_768" d="M10.063,7.912c0.5546,0.0694,1.0987,0.2065,1.62,0.408c0.4401,0.1797,0.936,0.163,1.363-0.046
	c0.3653-0.1608,0.6065-0.5162,0.621-0.915c-0.0217-0.4287-0.2924-0.8051-0.692-0.962c-0.905-0.4085-1.88-0.6393-2.872-0.68
	c0.0341,0.1088,0.0526,0.222,0.055,0.336v1.428C10.1539,7.6294,10.1217,7.7756,10.063,7.912z"/>
<path id="Path_769" d="M7.082,7.128H5.766V7.49c0.0498,0.4365,0.4396,0.7529,0.877,0.712h1.752
	c0.4385,0.0427,0.8302-0.2742,0.88-0.712V6.058c-0.0488-0.4384-0.441-0.7562-0.88-0.713H6.642
	C6.2044,5.3052,5.8148,5.6215,5.764,6.058v0.357h1.317c0.217-0.0115,0.4035,0.1523,0.42,0.369V6.79
	c-0.0337,0.2035-0.2139,0.3498-0.42,0.341L7.082,7.128z"/>
</svg>
