<svg xmlns="http://www.w3.org/2000/svg" width="12.36" height="22.609" viewBox="0 0 12.36 22.609">
  <g id="Group_941" data-name="Group 941" transform="translate(-67.688)">
    <g id="Group_940" data-name="Group 940" transform="translate(67.688 15.939)">
      <path id="Path_688" data-name="Path 688" d="M191.586,210.543a4.946,4.946,0,0,0,1.913,2.846,2.1,2.1,0,0,0,.593.241l-.465-3.087Z" transform="translate(-182.206 -210.543)"/>
      <path id="Path_689" data-name="Path 689" d="M76.465,210.543H74.424l-.465,3.087a2.1,2.1,0,0,0,.592-.241A4.946,4.946,0,0,0,76.465,210.543Z" transform="translate(-73.484 -210.543)"/>
      <path id="Path_690" data-name="Path 690" d="M80.044,216.752l-.293-1.947a3.106,3.106,0,0,1-1.3-.408,6.319,6.319,0,0,1-2.58-3.853H74.436v2.55a.568.568,0,1,1-1.136,0v-2.55H71.862a6.319,6.319,0,0,1-2.58,3.853,3.106,3.106,0,0,1-1.3.408l-.294,1.947a.4.4,0,0,0,.4.461h4.962a.4.4,0,0,0,.388-.3l.429-1.585.429,1.585a.4.4,0,0,0,.388.3h4.962a.4.4,0,0,0,.4-.461Z" transform="translate(-67.688 -210.544)"/>
    </g>
    <path id="Path_691" data-name="Path 691" d="M91.84.3a.3.3,0,0,0-.3-.3h-.678a.3.3,0,0,0-.3.295c0,4.565.649,4.553-2.4,4.553-3.081,0-2.4-.208-2.4-4.553a.3.3,0,0,0-.3-.295h-.678a.3.3,0,0,0-.3.3C84.418,2.143,83.142,14.8,83.142,14.8h10.02S91.887,2.143,91.84.3ZM84.953,5.95a.568.568,0,1,1,.568-.568A.568.568,0,0,1,84.953,5.95Zm6.4,0a.568.568,0,1,1,.568-.568A.568.568,0,0,1,91.352,5.95Z" transform="translate(-14.284)"/>
  </g>
</svg>
