<?xml version="1.0" encoding="utf-8"?>
<!-- Generator: Adobe Illustrator 25.1.0, SVG Export Plug-In . SVG Version: 6.00 Build 0)  -->
<svg version="1.1" id="Layer_1" xmlns="http://www.w3.org/2000/svg" xmlns:xlink="http://www.w3.org/1999/xlink" x="0px" y="0px"
	 viewBox="0 0 21.1187 21.1197" enable-background="new 0 0 21.1187 21.1197" xml:space="preserve">
<path d="M16.233,0.1057l4.629,13.2256l-2.9758,0.9919l-1.9838-5.6209L16.233,0.1057z"/>
<path d="M4.9913,0.1057l-4.629,13.2256l2.9758,0.9919l1.9838-5.6209L4.9913,0.1057z"/>
<path d="M8.6283,0.1057h3.9677v4.629H8.6283V0.1057z"/>
<path d="M12.5432,0.4157l-1.9838,3.637l-1.9838-3.637h-3.637v12.8949h11.2417V0.4157H12.5432z"/>
<path d="M4.9913,0.1057h1.3226v12.8949H4.9913V0.1057z"/>
<path d="M12.596,0.1057h1.6532l-0.3306,2.3145L12.596,2.0896v1.3226l-1.9838,0.3306L12.596,0.1057z"/>
<path d="M8.6283,0.1057H6.9751l0.3306,2.3145l1.3226-0.3306v1.3226l1.9838,0.3306L8.6283,0.1057z"/>
<path d="M15.9024,20.6054h-4.629l-0.6613-3.9677l-0.6613,3.9677h-4.629v-7.6047h10.5805V20.6054z"/>
<path d="M5.3219,13.0007h1.3226v7.6047H5.3219V13.0007z"/>
<path d="M9.9509,3.7428h1.3226v9.2579H9.9509V3.7428z"/>
<path d="M13.5879,11.3475c-0.7304,0-1.3226-0.5922-1.3226-1.3226V8.7024h2.6451v1.3226
	C14.9104,10.7553,14.3183,11.3475,13.5879,11.3475z"/>
<path d="M7.6364,11.3475c-0.7304,0-1.3226-0.5922-1.3226-1.3226V8.7024h2.6451v1.3226C8.9589,10.7553,8.3668,11.3475,7.6364,11.3475
	z"/>
<path fill="#FFFFFF" d="M21.1018,13.4331l-4.629-13.2256C16.43,0.0851,16.3101,0,16.1802,0H4.9385
	C4.8088,0,4.6887,0.0851,4.6459,0.2075l-4.629,13.2256c-0.0564,0.1613,0.033,0.3427,0.1946,0.3965l2.9758,0.9919
	c0.1584,0.0529,0.3348-0.0335,0.3903-0.1909l1.0509-2.9775v1.5518c0,0.1711,0.1389,0.31,0.31,0.31h0.0206v7.2947
	c0,0.1713,0.1389,0.31,0.31,0.31h4.629c0.1516,0,0.2809-0.1096,0.3058-0.2589l0.3555-2.1332l0.3556,2.1332
	c0.0248,0.1494,0.1542,0.2589,0.3057,0.2589h4.629c0.1713,0,0.31-0.1387,0.31-0.31V13.515h0.0206c0.1713,0,0.31-0.1389,0.31-0.31
	v-1.552l1.0509,2.9777c0.0556,0.1574,0.232,0.2438,0.3904,0.1909l2.9758-0.9919C21.0689,13.7758,21.1582,13.5944,21.1018,13.4331z
	 M10.8694,13.515h0.7025v2.3351c0,0.4504-0.2954,0.8329-0.7025,0.964V13.515z M10.9106,12.8949h-0.7025V4.2571h0.7025V12.8949z
	 M10.5594,3.2996L9.0978,0.62h2.9232L10.5594,3.2996z M11.1364,3.5366L12.7272,0.62h1.1118l-0.2315,1.6203l-0.989-0.2472
	c-0.1927-0.0483-0.3851,0.1023-0.3851,0.3007v1.0599L11.1364,3.5366z M8.3915,0.62l1.5908,2.9166L8.8855,3.3538V2.2939
	c0-0.1984-0.1924-0.349-0.3851-0.3007L7.5113,2.2404L7.2797,0.62H8.3915z M5.2485,0.62h1.4051l0.2926,2.0483
	c0.0255,0.179,0.2062,0.301,0.382,0.2568l0.9373-0.2343v0.9255c0,0.1515,0.1096,0.2809,0.2591,0.3057l1.0635,0.1774v8.7955H5.2485
	V0.62z M0.7061,13.3409l0.3392-0.9689l2.3775,0.8348l-0.3284,0.9302L0.7061,13.3409z M3.629,12.6223L1.2501,11.787l3.3784-9.653
	v7.6564L3.629,12.6223z M9.6354,20.4996H5.5792V13.515h4.6702v3.3014L9.6354,20.4996z M15.5397,20.4996h-4.0565l-0.5116-3.0699
	c0.7012-0.183,1.2202-0.8219,1.2202-1.5797V13.515h3.3478V20.4996z M16.1802,5.1249c-0.1711,0-0.3099,0.1387-0.3099,0.31v7.46
	h-4.3397V4.0995l1.0636-0.1774c0.1494-0.0248,0.2589-0.1542,0.2589-0.3057V2.6909l0.9375,0.2343
	c0.1758,0.0441,0.3564-0.0778,0.382-0.2568L14.4653,0.62h1.4051v3.3683c0,0.1713,0.1387,0.31,0.3099,0.31
	c0.1713,0,0.31-0.1387,0.31-0.31V2.134l3.3786,9.653l-2.3791,0.8353l-0.9995-2.832V5.4349
	C16.4902,5.2636,16.3515,5.1249,16.1802,5.1249z M18.0244,14.1371l-0.3282-0.9302l2.3775-0.8348l0.3392,0.9689L18.0244,14.1371z"/>
<path fill="#FFFFFF" d="M14.9104,8.3923h-2.6451c-0.1711,0-0.31,0.1389-0.31,0.31v1.3226c0,0.9002,0.7325,1.6326,1.6326,1.6326
	c0.9002,0,1.6326-0.7323,1.6326-1.6326V8.7024C15.2205,8.5312,15.0817,8.3923,14.9104,8.3923z M14.6006,10.0249
	c0,0.5583-0.4544,1.0125-1.0127,1.0125c-0.5583,0-1.0125-0.4542-1.0125-1.0125V9.0124h2.0252V10.0249z"/>
<path fill="#FFFFFF" d="M7.6364,11.6575c0.9002,0,1.6326-0.7323,1.6326-1.6326V8.7024c0-0.1711-0.1387-0.31-0.31-0.31H6.3138
	c-0.1711,0-0.31,0.1389-0.31,0.31v1.3226C6.0038,10.9251,6.7363,11.6575,7.6364,11.6575z M6.6238,9.0124h2.0251v1.0125
	c0,0.5583-0.4542,1.0125-1.0125,1.0125s-1.0125-0.4542-1.0125-1.0125V9.0124z"/>
<rect x="15.8704" y="3.1336" fill="#FFFFFF" width="0.6199" height="2.8464"/>
<path d="M10.9717,17.4298l-0.1023-0.6157V13.515h1.5809v2.6451C12.4502,16.8905,11.8315,17.3663,10.9717,17.4298z"/>
</svg>
