<?xml version="1.0" encoding="utf-8"?>
<!-- Generator: Adobe Illustrator 25.1.0, SVG Export Plug-In . SVG Version: 6.00 Build 0)  -->
<svg version="1.1" id="Layer_1" xmlns="http://www.w3.org/2000/svg" xmlns:xlink="http://www.w3.org/1999/xlink" x="0px" y="0px"
	 viewBox="0 0 14.6745 10.7475" enable-background="new 0 0 14.6745 10.7475" xml:space="preserve">
<g id="_037---Sheet" transform="translate(0)">
	<path id="Shape" d="M3.276,3.67h9.305c0.6435-0.0001,1.2644,0.2378,1.743,0.668L13.86,2.07c-0.263-1.205-1.3277-2.0655-2.561-2.07
		H3.641C2.4068,0.0048,1.3418,0.8668,1.08,2.073L0.472,4.911c0.018-0.019,0.033-0.04,0.052-0.06
		C1.239,4.0935,2.2355,3.6657,3.277,3.669L3.276,3.67z M6.814,0.526c0.1447,0,0.262,0.1173,0.262,0.262S6.9587,1.05,6.814,1.05
		c-0.1447,0-0.262-0.1173-0.262-0.262l0,0c-0.0011-0.1447,0.1153-0.2629,0.26-0.264c0,0,0,0,0,0l0,0L6.814,0.526z M1.586,2.184
		C1.7944,1.2163,2.6502,0.5255,3.64,0.526h2.126c0.1447-0.0001,0.2621,0.1172,0.2621,0.2619S5.911,1.0499,5.7663,1.05
		c-0.0001,0-0.0002,0-0.0002,0H3.64C2.8997,1.0525,2.2608,1.5695,2.104,2.293C2.0785,2.4141,1.9718,2.5008,1.848,2.501
		C1.8295,2.5011,1.8111,2.499,1.793,2.495c-0.1404-0.0309-0.2297-0.1693-0.2-0.31L1.586,2.184z"/>
	<path id="Shape-2" d="M13.71,8.913H3.276C2.4793,8.9119,1.834,8.2657,1.834,7.469C1.8339,7.4219,1.8363,7.3748,1.841,7.328
		c0.093-0.7484,0.7329-1.3078,1.487-1.3h9.253c0.1447,0,0.262,0.1173,0.262,0.262s-0.1173,0.262-0.262,0.262l0,0H3.328
		C2.8428,6.5409,2.4265,6.896,2.361,7.377c-0.0476,0.5037,0.3214,0.951,0.825,1c0.0296,0.0016,0.0594,0.0016,0.089,0h9.307
		c1.1576-0.0715,2.038-1.068,1.9664-2.2256c-0.0654-1.0578-0.9087-1.9011-1.9664-1.9664H3.276C1.4645,4.1872-0.0022,5.6575,0,7.469
		C0,7.4726,0,7.4763,0,7.48c0,0.052,0,0.106,0,0.158c0.116,1.7713,1.6022,3.1395,3.377,3.109h10.38
		c0.507-0.0003,0.9177-0.4116,0.9174-0.9186c0-0.0299-0.0015-0.0597-0.0044-0.0894c-0.0642-0.4818-0.4811-0.8379-0.967-0.826H13.71z
		"/>
</g>
</svg>
