<?xml version="1.0" encoding="iso-8859-1"?>
<!-- Generator: Adobe Illustrator 18.0.0, SVG Export Plug-In . SVG Version: 6.00 Build 0)  -->
<!DOCTYPE svg PUBLIC "-//W3C//DTD SVG 1.1//EN" "http://www.w3.org/Graphics/SVG/1.1/DTD/svg11.dtd">
<svg version="1.1" id="Capa_1" xmlns="http://www.w3.org/2000/svg" xmlns:xlink="http://www.w3.org/1999/xlink" x="0px" y="0px"
	 viewBox="0 0 56.452 56.452" style="enable-background:new 0 0 56.452 56.452;" xml:space="preserve">
<path d="M54.452,17.675H41.736v-4.018c0-1.104-0.896-2-2-2h-4.263V4.072c0-1.104-0.896-2-2-2H22.979c-1.104,0-2,0.896-2,2v7.586
	h-4.264c-1.104,0-2,0.896-2,2v4.018H2c-1.104,0-2,0.896-2,2v16.353V52.38c0,1.104,0.896,2,2,2h52.452c1.104,0,2-0.896,2-2V36.028
	V19.675C56.452,18.571,55.557,17.675,54.452,17.675z M24.979,6.072h6.495v5.586h-6.495V6.072z M18.715,15.658h19.021v2.018H18.715
	V15.658z M52.452,21.675v12.353h-8.031v-3.849c0-1.104-0.896-2-2-2H14.03c-1.104,0-2,0.896-2,2v3.849H4V21.675H52.452z
	 M29.691,8.801c0,0.809-0.656,1.465-1.465,1.465c-0.809,0-1.465-0.656-1.465-1.465s0.656-1.465,1.465-1.465
	C29.035,7.335,29.691,7.991,29.691,8.801z"/>
<g>
</g>
<g>
</g>
<g>
</g>
<g>
</g>
<g>
</g>
<g>
</g>
<g>
</g>
<g>
</g>
<g>
</g>
<g>
</g>
<g>
</g>
<g>
</g>
<g>
</g>
<g>
</g>
<g>
</g>
</svg>
