<?xml version="1.0" encoding="utf-8"?>
<!-- Generator: Adobe Illustrator 25.1.0, SVG Export Plug-In . SVG Version: 6.00 Build 0)  -->
<svg version="1.1" id="Capa_1" xmlns="http://www.w3.org/2000/svg" xmlns:xlink="http://www.w3.org/1999/xlink" x="0px" y="0px"
	 viewBox="0 0 13.509 11.918" enable-background="new 0 0 13.509 11.918" xml:space="preserve">
<path id="Path_778" d="M11.489,6.47c-0.9084,0.6643-1.9551,1.1148-3.062,1.318C8.2949,8.712,7.4389,9.3539,6.5149,9.2219
	C5.7714,9.1156,5.1873,8.5315,5.081,7.788C3.9748,7.5845,2.9289,7.134,2.021,6.47C0.7944,5.6354,0.0427,4.263,0,2.78v7.189
	c0.0011,1.0759,0.8731,1.9479,1.949,1.949h9.611c1.0759-0.0011,1.9479-0.8731,1.949-1.949V2.78
	C13.4662,4.2627,12.715,5.635,11.489,6.47z"/>
<path id="Path_779" d="M5.065,6.974V6.256c0-0.2209,0.1791-0.4,0.4-0.4l0,0h2.584c0.2209,0,0.4,0.1791,0.4,0.4l0,0v0.719
	c2.468-0.535,4.273-2.212,4.273-4.194v-0.4H9.535V1.6c0-0.8829-0.7151-1.5989-1.598-1.6H5.573c-0.8837,0-1.6,0.7163-1.6,1.6v0.784
	H0.792v0.4C0.792,4.762,2.598,6.44,5.065,6.974z M4.766,1.6c0-0.4459,0.3611-0.8074,0.807-0.808h2.364
	c0.4453,0,0.8064,0.3607,0.807,0.806v0.784H4.766V1.6z"/>
<path id="Path_780" d="M7.653,6.651H5.859v0.9c0,0.4971,0.4029,0.9,0.9,0.9s0.9-0.4029,0.9-0.9l0,0l0,0L7.653,6.651z"/>
</svg>
