<?xml version="1.0" encoding="utf-8"?>
<!-- Generator: Adobe Illustrator 25.1.0, SVG Export Plug-In . SVG Version: 6.00 Build 0)  -->
<svg version="1.1" id="Layer_1" xmlns="http://www.w3.org/2000/svg" xmlns:xlink="http://www.w3.org/1999/xlink" x="0px" y="0px"
	 viewBox="0 0 12.201 16.015" enable-background="new 0 0 12.201 16.015" xml:space="preserve">
<g id="Group_979" transform="translate(-2.057 -9.765)">
	<path id="Path_752" d="M5.797,10.062l0.012,0.127c0,0.033,0.347,3.36,2.348,3.36s2.345-3.327,2.348-3.36l0.012-0.127
		c-0.255,0.343-1.25,1.579-2.361,1.579s-2.1-1.236-2.36-1.579H5.797z"/>
	<path id="Path_753" d="M8.626,20.587v-3.284H6.749v0.939h0.469c0.259,0,0.469,0.21,0.469,0.469v1.877
		c0,0.259-0.21,0.469-0.469,0.469H6.749v0.939h2.815v-0.939H9.095c-0.259,0-0.469-0.21-0.469-0.469
		C8.626,20.5877,8.626,20.5873,8.626,20.587z"/>
	<path id="Path_754" d="M2.057,16.834v8.477c0,0.259,0.21,0.469,0.469,0.469h1.408V18c0.0015-0.6227-0.2463-1.2201-0.688-1.659
		l-0.629-0.629c-0.1405,0.2978-0.3016,0.5855-0.482,0.861C2.0838,16.6504,2.0566,16.7412,2.057,16.834z"/>
	<path id="Path_755" d="M11.437,17.686c-0.0007-0.6486,0.1915-1.2828,0.552-1.822l1.157-1.735
		c-0.2411-1.092-0.2284-2.2247,0.037-3.311l0.118-0.471c0.0624-0.2514-0.0908-0.5058-0.3422-0.5682
		C12.9219,9.7697,12.884,9.765,12.846,9.765h-1.358l-0.049,0.513c-0.016,0.171-0.43,4.21-3.282,4.21s-3.266-4.039-3.282-4.21
		L4.826,9.765H3.465c-0.259,0.0001-0.4689,0.2102-0.4688,0.4692c0,0.038,0.0047,0.0759,0.0138,0.1128l0.118,0.471
		c0.3193,1.3018,0.2736,2.6664-0.132,3.944l0.914,0.914C4.529,16.2906,4.8759,17.1277,4.873,18v7.78h6.564V17.686z M10.499,22.464
		c0,0.259-0.21,0.469-0.469,0.469H6.28c-0.259,0-0.469-0.21-0.469-0.469v-1.876c0-0.259,0.21-0.469,0.469-0.469h0.469V19.18H6.28
		c-0.259,0-0.469-0.21-0.469-0.469v-1.877c0-0.259,0.21-0.469,0.469-0.469h2.815c0.259,0,0.469,0.21,0.469,0.469v3.284h0.473
		c0.259,0,0.469,0.21,0.469,0.469L10.499,22.464z"/>
	<path id="Path_756" d="M13.503,15.292l-0.728,1.093c-0.2573,0.3847-0.3944,0.8372-0.394,1.3v8.094h1.408
		c0.2585,0.0006,0.4684-0.2085,0.469-0.467c0-0.0007,0-0.0013,0-0.002v-8.476c-0.0001-0.0924-0.0272-0.1828-0.078-0.26
		c-0.2678-0.4031-0.4939-0.8323-0.675-1.281L13.503,15.292z"/>
</g>
</svg>
