<?xml version="1.0" encoding="utf-8"?>
<!-- Generator: Adobe Illustrator 24.0.1, SVG Export Plug-In . SVG Version: 6.00 Build 0)  -->
<svg version="1.1" id="Layer_1" xmlns="http://www.w3.org/2000/svg" xmlns:xlink="http://www.w3.org/1999/xlink" x="0px" y="0px"
	 width="9.3px" height="17.6px" viewBox="0 0 9.3 17.6" style="enable-background:new 0 0 9.3 17.6;" xml:space="preserve">
<path d="M8.1,6.2C8.1,6.2,8.1,6.2,8.1,6.2c0.5-0.4,0.8-1.1,0.8-1.7c0-0.4-0.1-0.8-0.3-1.1C8.5,3.2,8.5,3.1,8.5,2.9V0.6
	C8.5,0.3,8.2,0,7.9,0C7.5,0,7.3,0.3,7.3,0.6v1.7c0,0.5-0.3,1-0.8,1.2C5.3,3.9,4,3.9,2.8,3.5C2.3,3.3,2,2.8,2,2.3V0.6
	C2,0.3,1.7,0,1.4,0C1.1,0,0.8,0.3,0.7,0.6v2.3c0,0.2,0,0.4-0.1,0.5C0.4,3.7,0.3,4.1,0.3,4.5c0,0.7,0.3,1.3,0.8,1.7
	c0,0,0.1,0,0.1,0.1C0.4,7.2,0,8.4,0,9.6v7.1c0,0.1,0,0.2,0.1,0.2c1,0.7,2.1,0.7,3.1-0.1c0.5,0.5,0.9,0.8,1.4,0.8s1-0.3,1.4-0.8
	c1,0.8,2.1,0.8,3.1,0.1c0.1-0.1,0.1-0.1,0.1-0.2V9.6C9.3,8.4,8.9,7.2,8.1,6.2z M2.1,10.3c-0.1,0-0.3-0.1-0.2-0.3
	C2,8.9,2.2,7.8,2.6,6.8c0.2,0,0.3,0.1,0.5,0.1c-0.4,1-0.6,2.1-0.7,3.2C2.4,10.2,2.3,10.4,2.1,10.3z M7.3,10.4
	c-0.1,0-0.3-0.1-0.3-0.3C6.9,9,6.7,7.9,6.3,6.9c0.2,0,0.3-0.1,0.5-0.1C7.2,7.8,7.4,9,7.5,10.1C7.5,10.2,7.4,10.4,7.3,10.4z"/>
</svg>
