<?xml version="1.0" encoding="utf-8"?>
<!-- Generator: Adobe Illustrator 25.1.0, SVG Export Plug-In . SVG Version: 6.00 Build 0)  -->
<svg version="1.1" id="Capa_1" xmlns="http://www.w3.org/2000/svg" xmlns:xlink="http://www.w3.org/1999/xlink" x="0px" y="0px"
	 viewBox="0 0 16.5751 12.1623" enable-background="new 0 0 16.5751 12.1623" xml:space="preserve">
<g id="Group_984" transform="translate(83.044 147.024)">
	<g id="Group_983" transform="translate(-83.044 -147.024)">
		<g id="Group_982" transform="translate(0 0)">
			<path id="Path_733" d="M8.288,1.6583c1.064,0,4.918-0.309,6.873-0.551l0.322-0.072l-0.3-0.852
				c-0.0477-0.1338-0.1892-0.2095-0.327-0.175c-2.1747,0.3164-4.3669,0.4981-6.564,0.544c-2.1971-0.0459-4.3893-0.2276-6.564-0.544
				c-0.1377-0.034-0.2789,0.0415-0.327,0.175l-0.3,0.848l0.335,0.077C3.389,1.3513,7.227,1.6583,8.288,1.6583z"/>
			<path id="Path_734" d="M16.56,4.0533l-0.89-2.493l-0.415,0.092c-1.752,0.218-5.264,0.516-6.691,0.555v0.833
				c0,0.1524-0.1236,0.276-0.276,0.276l0,0c-0.1524,0-0.276-0.1236-0.276-0.276l0,0v-0.833c-1.427-0.039-4.936-0.337-6.665-0.55
				H1.319l-0.412-0.1l-0.891,2.5C0.0054,4.0872,0,4.1186,0,4.1503c0.0054,0.1309,0.0314,0.2602,0.077,0.383
				c0.525,1.585,4.746,7.629,6,7.629h4.421c1.256,0,5.474-6.041,6-7.628l0,0c0.0455-0.1229,0.0714-0.2521,0.077-0.383
				C16.5761,4.118,16.571,4.0848,16.56,4.0533z M6.05,10.9963c0,0.076,0,0.152-0.007,0.228s-0.012,0.151-0.02,0.225
				c-0.005,0.048-0.013,0.1-0.019,0.143c-0.875-0.273-4.361-4.86-5.264-6.885c0.048,0,0.1,0,0.143,0.008s0.1,0,0.146,0.01
				s0.109,0.015,0.163,0.023c0.1107,0.0167,0.2217,0.038,0.333,0.064c0.041,0.01,0.082,0.017,0.123,0.028
				c0.058,0.015,0.116,0.035,0.174,0.053s0.094,0.028,0.14,0.044s0.113,0.043,0.169,0.065s0.1,0.037,0.143,0.057
				s0.11,0.05,0.165,0.076s0.1,0.046,0.145,0.07s0.106,0.057,0.159,0.086s0.1,0.054,0.146,0.083s0.1,0.063,0.153,0.1
				s0.1,0.064,0.146,0.1s0.1,0.069,0.147,0.1s0.1,0.073,0.146,0.111s0.094,0.074,0.14,0.112s0.1,0.082,0.145,0.124
				s0.088,0.078,0.132,0.119s0.1,0.092,0.144,0.139s0.083,0.082,0.123,0.124s0.1,0.1,0.142,0.155s0.076,0.084,0.113,0.127
				s0.1,0.116,0.143,0.175c0.033,0.041,0.067,0.082,0.1,0.125c0.052,0.068,0.1,0.138,0.151,0.209
				c0.026,0.036,0.052,0.072,0.078,0.109c0.074,0.109,0.145,0.22,0.214,0.335c0.1,0.163,0.187,0.329,0.27,0.5
				c0.028,0.056,0.051,0.114,0.077,0.171c0.052,0.112,0.1,0.225,0.149,0.339c0.027,0.068,0.049,0.138,0.074,0.206
				c0.037,0.1,0.075,0.207,0.107,0.311c0.023,0.074,0.04,0.147,0.06,0.221c0.027,0.1,0.054,0.2,0.076,0.3
				c0.016,0.076,0.029,0.152,0.042,0.227c0.017,0.1,0.035,0.2,0.047,0.293c0.01,0.077,0.016,0.153,0.022,0.23
				c0,0.023,0,0.045,0,0.068c0.007,0.092,0.012,0.183,0.015,0.272c0,0.037,0,0.074,0,0.11s0.005,0.072,0.005,0.112V10.9963z
				 M7.424,8.9773l-0.369,0.66C6.8687,9.7125,6.6896,9.8046,6.52,9.9123c-0.019-0.114-0.036-0.227-0.061-0.341l0.482-0.863
				c0.0744-0.133,0.2425-0.1806,0.3756-0.1062C7.3167,8.6022,7.3168,8.6023,7.317,8.6023C7.45,8.6764,7.4978,8.8442,7.424,8.9773z
				 M10.056,9.9113c-0.1696-0.1078-0.3487-0.1998-0.535-0.275l-0.369-0.66C9.0774,8.8434,9.1247,8.6752,9.2576,8.6006
				C9.2577,8.6005,9.2579,8.6004,9.258,8.6003C9.3909,8.5257,9.5592,8.573,9.6338,8.7059C9.6339,8.706,9.6339,8.7062,9.634,8.7063
				l0.482,0.863c-0.024,0.115-0.042,0.229-0.06,0.343V9.9113z M10.572,11.5913c-0.007-0.048-0.014-0.095-0.019-0.143
				c-0.008-0.075-0.015-0.149-0.02-0.225s-0.006-0.152-0.007-0.228c0-0.038,0-0.076,0-0.115s0-0.073,0-0.11
				c0-0.09,0.008-0.18,0.015-0.272c0-0.023,0-0.045,0-0.068c0.007-0.076,0.012-0.153,0.022-0.23c0.012-0.1,0.03-0.2,0.047-0.293
				c0.014-0.076,0.025-0.152,0.042-0.227c0.022-0.1,0.049-0.2,0.076-0.3c0.02-0.074,0.038-0.148,0.06-0.221
				c0.032-0.1,0.07-0.207,0.107-0.311c0.025-0.069,0.047-0.138,0.074-0.206c0.045-0.114,0.1-0.226,0.15-0.339
				c0.026-0.057,0.049-0.114,0.077-0.171c0.0827-0.168,0.1727-0.3347,0.27-0.5c0.0667-0.1147,0.1377-0.2263,0.213-0.335
				c0.025-0.037,0.052-0.073,0.078-0.109c0.05-0.07,0.1-0.141,0.151-0.209c0.032-0.043,0.066-0.083,0.1-0.125
				c0.047-0.059,0.094-0.119,0.143-0.176s0.075-0.084,0.112-0.126s0.094-0.1,0.143-0.156s0.082-0.083,0.123-0.123
				s0.1-0.094,0.144-0.14s0.087-0.08,0.132-0.119s0.1-0.084,0.146-0.125s0.092-0.075,0.139-0.111s0.1-0.075,0.148-0.112
				s0.1-0.07,0.145-0.1s0.1-0.067,0.149-0.1s0.1-0.064,0.15-0.094s0.1-0.058,0.151-0.086s0.1-0.057,0.154-0.084
				s0.1-0.05,0.153-0.074s0.1-0.05,0.156-0.072s0.1-0.042,0.157-0.063s0.1-0.042,0.155-0.06s0.112-0.036,0.168-0.053
				s0.1-0.032,0.146-0.045c0.1-0.027,0.2-0.051,0.307-0.07c0.039-0.007,0.079-0.011,0.119-0.018c0.066-0.01,0.132-0.021,0.2-0.028
				c0.045,0,0.089-0.006,0.133-0.009s0.1-0.007,0.155-0.008c-0.903,2.03-4.393,6.617-5.264,6.89V11.5913z"/>
		</g>
	</g>
</g>
</svg>
