<?xml version="1.0" encoding="utf-8"?>
<!-- Generator: Adobe Illustrator 25.1.0, SVG Export Plug-In . SVG Version: 6.00 Build 0)  -->
<svg version="1.1" id="Capa_1" xmlns="http://www.w3.org/2000/svg" xmlns:xlink="http://www.w3.org/1999/xlink" x="0px" y="0px"
	 viewBox="0 0 16.2863 11.842" enable-background="new 0 0 16.2863 11.842" xml:space="preserve">
<g id="Group_987" transform="translate(0 -2.705)">
	<path id="Path_746" fill="#030104" d="M16.0165,6.898c-0.0108-0.0066-0.0222-0.0123-0.034-0.017L5.4805,2.817
		c-0.1429-0.0605-0.2944-0.0982-0.449-0.112c-2.253,0.081-3.687,0.658-4.478,1.723c-0.4144,0.6796-0.604,1.4725-0.542,2.266v1.673
		c-0.0001,0.1018,0.055,0.1956,0.144,0.245v1.267c0,0.3098,0.2512,0.561,0.561,0.561h0.075c0.3098,0,0.561-0.2512,0.561-0.561v-0.8
		l0.965,0.376v1.37c-0.0006,0.3093,0.2497,0.5604,0.559,0.561c0,0,0,0,0,0h0.076c0.3094-0.0006,0.56-0.2516,0.56-0.561v-0.9
		l1.016,0.4v1.457c0,0.3098,0.2512,0.561,0.561,0.561h0.074c0.3094-0.0006,0.56-0.2516,0.56-0.561V10.79l1.08,0.415v1.52
		c0.0005,0.3087,0.2503,0.5589,0.559,0.56h0.076c0.3091-0.0006,0.5594-0.2509,0.56-0.56v-1.057l0.979,0.383v1.488
		c0.0006,0.3096,0.2514,0.5604,0.561,0.561h0.075c0.3092-0.0011,0.5595-0.2518,0.56-0.561v-1.022l0.9,0.349v1.12
		c0,0.3091,0.2499,0.5599,0.559,0.561h0.071c0.3098,0,0.561-0.2512,0.561-0.561v-1.164c0.2876-0.0398,0.5722-0.0986,0.852-0.176
		v0.892c0.0005,0.3092,0.2508,0.5599,0.56,0.561h0.075c0.3096-0.0006,0.5604-0.2514,0.561-0.561v-1.373
		c0.2336-0.1284,0.4567-0.2752,0.667-0.439v0.273c0.0006,0.3091,0.2509,0.5595,0.56,0.56h0.076
		c0.3091-0.0006,0.5595-0.2509,0.56-0.56v-1.684c0.031-0.062,0.049-0.1,0.053-0.116c0.0114-0.0277,0.0185-0.0571,0.021-0.087
		l0.036-2.64C16.2855,7.472,16.3145,6.97,16.0165,6.898z M1.7115,4.985c0.6-0.81,1.879-1.274,3.694-1.342l9.493,3.672
		c0.0787,0.4212,0.0046,0.8566-0.209,1.228c-0.5,0.909-1.752,1.412-3.622,1.835l-9.738-3.882
		C1.2551,5.9618,1.3922,5.4197,1.7115,4.985z"/>
</g>
</svg>
