<svg xmlns="http://www.w3.org/2000/svg" width="18.989" height="15.078" viewBox="0 0 18.989 15.078">
  <path id="Path_694" data-name="Path 694" d="M18.839,38.976l-.3-.417a1.4,1.4,0,0,0-.221-1.176,1.292,1.292,0,0,0-.578-.424,1.742,1.742,0,0,0-.3-1.392,1.619,1.619,0,0,0-.643-.5,2.263,2.263,0,0,0-.447-1.625,2.309,2.309,0,0,0-2.121-.873l-.071-.1a1.727,1.727,0,0,0-1.4-.719h-.8V30.669a.8.8,0,0,0-.8-.8h-.189L9.789,33.086a.49.49,0,0,1,.2.392v.982a.491.491,0,1,1-.982,0v-.982a.49.49,0,0,1,.2-.392L8.013,29.872H7.8a.8.8,0,0,0-.8.8v1.084H6.23a1.727,1.727,0,0,0-1.4.719l-.072.1a2.311,2.311,0,0,0-2.142.87,2.264,2.264,0,0,0-.447,1.625,1.619,1.619,0,0,0-.643.5,1.742,1.742,0,0,0-.3,1.392,1.292,1.292,0,0,0-.578.424,1.4,1.4,0,0,0-.215,1.2l-.282.393a.8.8,0,0,0,.132,1.073l.86.727a.8.8,0,0,0,1.077-.045l.475-.474a1.414,1.414,0,0,0,.951-.421,2.921,2.921,0,0,0-.042.489,3.291,3.291,0,0,0,.98,2.271c.085.107.175.212.271.314a.8.8,0,0,0-.3.625v.618a.8.8,0,0,0,.8.8h8.3a.8.8,0,0,0,.8-.8v-.618a.8.8,0,0,0-.3-.625c.1-.1.186-.207.271-.314a3.291,3.291,0,0,0,.98-2.271,2.918,2.918,0,0,0-.037-.461,1.429,1.429,0,0,0,.947.394l.474.473a.8.8,0,0,0,1.077.045l.86-.727A.8.8,0,0,0,18.839,38.976ZM9.985,43.641a.491.491,0,1,1-.982,0v-.982a.491.491,0,1,1,.982,0Zm0-2.622a.491.491,0,0,1-.982,0V39.38a.491.491,0,1,1,.982,0Zm0-3.28a.491.491,0,0,1-.982,0V36.1a.491.491,0,1,1,.982,0Z" transform="translate(0 -29.872)"/>
</svg>
